<svg width="135" height="107" viewBox="0 0 135 107" fill="none" xmlns="http://www.w3.org/2000/svg">
<path d="M132.255 59.9163H93.0941C92.3102 59.9165 91.5835 60.3262 91.1775 60.9967C90.7714 61.6671 90.7451 62.501 91.108 63.1957C97 74.5135 94.1301 88.4135 84.2375 96.4723C74.3449 104.531 60.1517 104.531 50.2591 96.4723C40.3665 88.4135 37.4966 74.5135 43.3886 63.1957C43.7515 62.501 43.7252 61.6671 43.3191 60.9967C42.9131 60.3262 42.1864 59.9165 41.4025 59.9163H2.24161C1.0036 59.9163 0 60.9199 0 62.1579C0 63.3959 1.0036 64.3995 2.24161 64.3995H37.9392C32.9373 77.468 37.1919 92.2692 48.3699 100.687C59.548 109.104 74.9486 109.104 86.1267 100.687C97.3047 92.2692 101.559 77.468 96.5574 64.3995H132.255C133.493 64.3995 134.497 63.3959 134.497 62.1579C134.497 60.9199 133.493 59.9163 132.255 59.9163Z" fill="url(#paint0_linear)"/>
<path d="M80.178 1.53338C73.5294 9.2378 64.7445 23.342 60.6491 46.7937C59.5374 52.4254 56.7714 57.5975 52.7048 61.6489C45.3793 69.2773 45.1883 81.2681 52.2673 89.1259C59.3462 96.9837 71.2918 98.0409 79.6408 91.5485C87.9897 85.0561 89.9077 73.2182 84.0358 64.4218C79.414 57.8999 77.3487 49.9076 78.2323 41.9631C79.5596 29.692 82.7258 17.6906 87.6246 6.36181C88.5587 4.3376 87.8635 1.93458 85.993 0.721722C84.1224 -0.491141 81.6449 -0.145324 80.178 1.53338ZM73.7984 41.378C72.8089 50.3946 75.1182 59.4644 80.299 66.91C84.8659 73.7513 83.3746 82.958 76.8817 88.0079C70.3887 93.0578 61.0982 92.2366 55.5917 86.126C50.0853 80.0155 50.2321 70.6899 55.9282 64.7558C60.6157 60.0625 63.7948 54.0765 65.0583 47.5649C68.9834 25.1218 77.2908 11.7372 83.5651 4.46093C78.473 16.206 75.1805 28.6515 73.7984 41.378Z" fill="url(#paint1_linear)"/>
<path d="M99.2877 32.3601C100.163 33.2352 101.582 33.2352 102.457 32.3601L104.699 30.1185C105.548 29.2389 105.536 27.8408 104.672 26.9761C103.807 26.1115 102.409 26.0993 101.529 26.9488L99.2877 29.1904C98.4126 30.0658 98.4126 31.4847 99.2877 32.3601Z" fill="url(#paint2_linear)"/>
<path d="M90.3213 38.1567L88.0797 40.3983C87.2302 41.2779 87.2423 42.676 88.107 43.5407C88.9717 44.4053 90.3698 44.4175 91.2493 43.568L93.4909 41.3264C94.3404 40.4468 94.3283 39.0487 93.4636 38.184C92.599 37.3194 91.2009 37.3072 90.3213 38.1567Z" fill="url(#paint3_linear)"/>
<path d="M99.2877 41.3264C101.664 43.7047 101.948 44.2248 103.114 44.2248C104.021 44.2246 104.838 43.6784 105.185 42.8409C105.532 42.0034 105.34 41.0394 104.699 40.3983L102.457 38.1567C101.578 37.3072 100.18 37.3194 99.315 38.184C98.4503 39.0487 98.4382 40.4468 99.2877 41.3264Z" fill="url(#paint4_linear)"/>
<path d="M93.4909 29.1904L91.2493 26.9488C90.3698 26.0993 88.9717 26.1115 88.107 26.9761C87.2423 27.8408 87.2302 29.2389 88.0797 30.1185L90.3213 32.3601C91.2009 33.2096 92.599 33.1974 93.4636 32.3328C94.3283 31.4681 94.3404 30.07 93.4909 29.1904Z" fill="url(#paint5_linear)"/>
<path d="M114.322 8.359C115.51 8.359 115.835 7.77394 118.148 5.4606C118.731 4.89779 118.965 4.06435 118.76 3.28061C118.555 2.49688 117.943 1.88482 117.159 1.67968C116.375 1.47454 115.542 1.70824 114.979 2.29096L112.737 4.53257C112.096 5.17366 111.905 6.13765 112.251 6.97515C112.598 7.81266 113.416 8.35881 114.322 8.359Z" fill="url(#paint6_linear)"/>
<path d="M101.529 18.9102C102.404 19.7853 103.823 19.7853 104.699 18.9102L106.94 16.6686C107.79 15.7891 107.778 14.391 106.913 13.5263C106.048 12.6616 104.65 12.6495 103.771 13.499L101.529 15.7406C100.654 16.616 100.654 18.0349 101.529 18.9102Z" fill="url(#paint7_linear)"/>
<path d="M112.737 16.6686C115.113 19.047 115.398 19.567 116.564 19.567C117.47 19.5668 118.287 19.0207 118.634 18.1832C118.981 17.3457 118.789 16.3817 118.148 15.7406L115.907 13.499C115.027 12.6495 113.629 12.6616 112.764 13.5263C111.9 14.391 111.888 15.7891 112.737 16.6686Z" fill="url(#paint8_linear)"/>
<path d="M103.771 7.70236C104.65 8.55187 106.048 8.53972 106.913 7.67505C107.778 6.81039 107.79 5.41228 106.94 4.53272L104.699 2.29111C103.819 1.4416 102.421 1.45375 101.556 2.31842C100.692 3.18308 100.68 4.58119 101.529 5.46075L103.771 7.70236Z" fill="url(#paint9_linear)"/>
<defs>
<linearGradient id="paint0_linear" x1="67.2483" y1="59.9163" x2="67.2483" y2="107" gradientUnits="userSpaceOnUse">
<stop stop-color="#4FACFE"/>
<stop offset="1" stop-color="#00F2FE"/>
</linearGradient>
<linearGradient id="paint1_linear" x1="67.5597" y1="0" x2="67.5597" y2="95.7975" gradientUnits="userSpaceOnUse">
<stop stop-color="#4FACFE"/>
<stop offset="1" stop-color="#00F2FE"/>
</linearGradient>
<linearGradient id="paint2_linear" x1="101.98" y1="26.3196" x2="101.98" y2="33.0164" gradientUnits="userSpaceOnUse">
<stop stop-color="#4FACFE"/>
<stop offset="1" stop-color="#00F2FE"/>
</linearGradient>
<linearGradient id="paint3_linear" x1="90.7853" y1="37.5275" x2="90.7853" y2="44.1972" gradientUnits="userSpaceOnUse">
<stop stop-color="#4FACFE"/>
<stop offset="1" stop-color="#00F2FE"/>
</linearGradient>
<linearGradient id="paint4_linear" x1="102.007" y1="37.5275" x2="102.007" y2="44.2248" gradientUnits="userSpaceOnUse">
<stop stop-color="#4FACFE"/>
<stop offset="1" stop-color="#00F2FE"/>
</linearGradient>
<linearGradient id="paint5_linear" x1="90.7853" y1="26.3196" x2="90.7853" y2="32.9893" gradientUnits="userSpaceOnUse">
<stop stop-color="#4FACFE"/>
<stop offset="1" stop-color="#00F2FE"/>
</linearGradient>
<linearGradient id="paint6_linear" x1="115.457" y1="1.60657" x2="115.457" y2="8.359" gradientUnits="userSpaceOnUse">
<stop stop-color="#4FACFE"/>
<stop offset="1" stop-color="#00F2FE"/>
</linearGradient>
<linearGradient id="paint7_linear" x1="104.221" y1="12.8698" x2="104.221" y2="19.5666" gradientUnits="userSpaceOnUse">
<stop stop-color="#4FACFE"/>
<stop offset="1" stop-color="#00F2FE"/>
</linearGradient>
<linearGradient id="paint8_linear" x1="115.456" y1="12.8698" x2="115.456" y2="19.567" gradientUnits="userSpaceOnUse">
<stop stop-color="#4FACFE"/>
<stop offset="1" stop-color="#00F2FE"/>
</linearGradient>
<linearGradient id="paint9_linear" x1="104.235" y1="1.66187" x2="104.235" y2="8.33161" gradientUnits="userSpaceOnUse">
<stop stop-color="#4FACFE"/>
<stop offset="1" stop-color="#00F2FE"/>
</linearGradient>
</defs>
</svg>
