<svg width="108" height="108" viewBox="0 0 108 108" fill="none" xmlns="http://www.w3.org/2000/svg">
<path d="M7.8838 62.565L8.60379 66.1452C8.84341 67.4817 9.88189 68.5323 11.2155 68.7875C12.6184 69.1677 14.0499 69.4326 15.4959 69.5795C16.3786 69.582 17.2261 69.2336 17.852 68.6111L49.8914 36.5627L50.7914 37.4627C51.7035 38.3794 52.9434 38.8948 54.2365 38.8948C55.5297 38.8948 56.7696 38.3794 57.6817 37.4627L68.9189 26.2273C70.4143 24.7411 71.2524 22.718 71.2462 20.6096V19.1822C71.2434 18.0293 71.7016 16.923 72.5188 16.1097L75.0639 13.5645C77.3217 11.2883 77.9934 7.87976 76.768 4.91716C75.5426 1.95456 72.6594 0.016344 69.4535 0C65.5907 0 63.9114 2.25176 61.2906 4.87251C60.4768 5.69017 59.3699 6.1484 58.2163 6.14509H56.7889C54.6806 6.13927 52.6577 6.97735 51.1712 8.47244L39.9358 19.7096C38.0353 21.6132 38.0353 24.6963 39.9358 26.5999L40.8358 27.4999L8.79638 59.5393C8.00591 60.3321 7.66353 61.4673 7.8838 62.565ZM42.4792 22.2548L47.7261 17.0097L54.0565 23.3402C54.5085 23.8081 55.1777 23.9957 55.807 23.831C56.4363 23.6663 56.9278 23.1748 57.0925 22.5455C57.2573 21.9162 57.0696 21.2469 56.6017 20.795L50.2712 14.4645L53.7163 11.0194C54.5294 10.2015 55.6357 9.74267 56.7889 9.74502H58.2163C62.0772 9.74502 63.7602 7.49326 66.3809 4.87251C68.1004 3.23093 70.8065 3.23093 72.526 4.87251C74.2182 6.57207 74.2182 9.31984 72.526 11.0194C69.8872 13.6563 67.6535 15.3285 67.6535 19.1822V20.6096C67.657 21.7622 67.1987 22.8682 66.3809 23.6804L62.934 27.1273L60.954 25.1473C60.5021 24.6794 59.8329 24.4918 59.2035 24.6565C58.5742 24.8212 58.0827 25.3127 57.918 25.942C57.7533 26.5713 57.9409 27.2406 58.4089 27.6925L60.3888 29.6725L55.1419 34.9194C54.639 35.4021 53.8448 35.4021 53.342 34.9194L42.4792 24.0548C42.2404 23.8161 42.1063 23.4923 42.1063 23.1548C42.1063 22.8172 42.2404 22.4935 42.4792 22.2548ZM47.3535 34.0194L33.8537 47.5191L29.8794 43.5394L43.3791 30.0396L47.3535 34.0194ZM27.3414 46.0791L31.3194 50.0589L15.4113 65.9598L12.1065 65.2938L11.4387 61.9873L27.3414 46.0791Z" fill="url(#paint0_linear)"/>
<path d="M14.3997 107.998C22.2047 108.129 28.6448 101.921 28.7995 94.1166C28.7995 88.7455 22.1774 78.3633 18.6351 73.9966C17.5925 72.7315 16.039 71.9987 14.3997 71.9987C12.7604 71.9987 11.2069 72.7315 10.1644 73.9966C6.62208 78.3633 0 88.7383 0 94.1166C0.154638 101.921 6.59472 108.129 14.3997 107.998ZM12.9598 76.2663C13.3182 75.8428 13.8449 75.5985 14.3997 75.5985C14.9546 75.5985 15.4813 75.8428 15.8397 76.2663C19.6556 80.9661 25.1995 90.2575 25.1995 94.1166C25.0473 99.934 20.2176 104.532 14.3997 104.398C8.58189 104.532 3.75213 99.934 3.59993 94.1166C3.59993 90.2575 9.14383 80.9661 12.9598 76.2663Z" fill="url(#paint1_linear)"/>
<path d="M7.1351 97.1982C8.13708 99.2003 10.0252 100.612 12.229 101.007C13.1938 101.247 14.1709 100.66 14.4115 99.6956C14.652 98.7308 14.065 97.7537 13.1002 97.5131C11.9712 97.3588 10.9774 96.6901 10.4092 95.7024C9.98382 94.2642 10.1275 92.7176 10.8106 91.3825C11.254 90.4923 10.8918 89.4112 10.0015 88.9678C9.11133 88.5244 8.03026 88.8867 7.58689 89.7769C6.41809 92.0822 6.25458 94.7681 7.1351 97.1982Z" fill="url(#paint2_linear)"/>
<path d="M100.132 48.5992C97.7553 48.5318 95.8657 46.5815 95.8735 44.2036C96.7129 43.5145 97.199 42.4853 97.1983 41.3993V34.1994C97.2284 32.2451 95.6713 30.635 93.7171 30.5995H71.8799C69.9257 30.635 68.3687 32.2451 68.3988 34.1994V41.3993C68.398 42.4853 68.8842 43.5145 69.7236 44.2036C69.7314 46.5815 67.8417 48.5318 65.4649 48.5992C61.0584 48.6692 57.5399 52.2924 57.599 56.699V100.798C57.5489 104.717 60.68 107.938 64.5991 107.998H100.998C104.917 107.938 108.048 104.717 107.998 100.798V56.699C108.057 52.2924 104.539 48.6692 100.132 48.5992ZM61.1989 61.1989H104.398V93.5983H61.1989V61.1989ZM93.5875 34.176C93.5875 34.176 93.5983 34.167 93.5983 34.1994L93.7171 41.3993H71.9987L71.8799 34.176H93.5875ZM65.4649 52.1991C69.5256 52.1428 72.8944 49.0415 73.2857 44.9992H92.3114C92.7027 49.0415 96.0714 52.1428 100.132 52.1991C102.551 52.2687 104.458 54.2804 104.398 56.699V57.599H61.1989V56.699C61.1395 54.2804 63.0465 52.2687 65.4649 52.1991ZM100.998 104.398H64.5991C62.6677 104.339 61.1475 102.73 61.1989 100.798V97.1982H104.398V100.798C104.45 102.73 102.929 104.339 100.998 104.398Z" fill="url(#paint3_linear)"/>
<path d="M98.4006 66.3162C98.3216 65.818 98.0373 65.3757 97.6167 65.0972C97.1961 64.8186 96.678 64.7293 96.1884 64.8511C95.805 64.9483 87.5108 67.0452 82.9083 70.6577C78.2571 67.1496 70.4291 65.1138 69.3743 64.8529C68.8834 64.7306 68.3638 64.8205 67.9426 65.1007C67.5213 65.3808 67.2374 65.8253 67.1604 66.3252C66.9624 67.6212 65.3136 79.1392 68.7101 84.2079C72.1643 89.3558 78.8547 91.7372 83.6786 88.5584C83.8586 88.4468 83.99 88.2938 84.152 88.1696C84.2089 88.1434 84.2642 88.114 84.3176 88.0814C84.3734 88.0364 84.4022 87.9716 84.4526 87.923C86.0892 86.5363 87.1837 84.6163 87.5432 82.5015L91.2889 78.6586C91.9848 77.9458 91.9711 76.8039 91.2583 76.108C90.5455 75.4122 89.4036 75.4259 88.7078 76.1386L87.3506 77.5336C86.9689 76.0025 86.3265 74.5485 85.4516 73.2353C88.4384 71.3149 91.6941 69.8493 95.112 68.8866C95.5854 73.2677 95.625 79.3822 93.9943 81.8463C93.0315 83.3319 91.6705 84.5169 90.0667 85.2663C89.2909 85.6129 88.8632 86.455 89.0409 87.286C89.2185 88.117 89.9531 88.7105 90.8029 88.7096C93.4008 87.9009 95.608 86.1604 97.0002 83.8227C100.283 78.8638 98.6022 67.5852 98.4006 66.3162ZM71.6999 82.2027C69.8531 79.4452 70.0673 72.8429 70.4687 68.883C74.8336 70.1988 80.7159 72.6341 82.4205 75.1721C84.3127 77.6669 84.6504 81.0107 83.2953 83.8335L78.8169 78.0862C78.2056 77.3019 77.0741 77.1616 76.2898 77.773C75.5054 78.3844 75.3652 79.5158 75.9766 80.3002L80.5125 86.1213C77.6344 87.0878 73.9282 85.5201 71.6999 82.2027Z" fill="url(#paint4_linear)"/>
<defs>
<linearGradient id="paint0_linear" x1="42.5954" y1="0" x2="42.5954" y2="69.5795" gradientUnits="userSpaceOnUse">
<stop stop-color="#4FACFE"/>
<stop offset="1" stop-color="#00F2FE"/>
</linearGradient>
<linearGradient id="paint1_linear" x1="14.3997" y1="71.9987" x2="14.3997" y2="108" gradientUnits="userSpaceOnUse">
<stop stop-color="#4FACFE"/>
<stop offset="1" stop-color="#00F2FE"/>
</linearGradient>
<linearGradient id="paint2_linear" x1="10.5203" y1="88.7786" x2="10.5203" y2="101.061" gradientUnits="userSpaceOnUse">
<stop stop-color="#4FACFE"/>
<stop offset="1" stop-color="#00F2FE"/>
</linearGradient>
<linearGradient id="paint3_linear" x1="82.7985" y1="30.5995" x2="82.7985" y2="107.998" gradientUnits="userSpaceOnUse">
<stop stop-color="#4FACFE"/>
<stop offset="1" stop-color="#00F2FE"/>
</linearGradient>
<linearGradient id="paint4_linear" x1="82.7981" y1="64.7979" x2="82.7981" y2="89.9949" gradientUnits="userSpaceOnUse">
<stop stop-color="#4FACFE"/>
<stop offset="1" stop-color="#00F2FE"/>
</linearGradient>
</defs>
</svg>
