<svg width="94" height="141" viewBox="0 0 94 141" fill="none" xmlns="http://www.w3.org/2000/svg">
<path d="M93.6601 59.6781C92.3312 50.4817 87.298 42.6993 79.0796 37.1087C78.8038 31.7048 76.7955 26.6459 73.3628 22.7606C72.2094 21.455 70.9306 20.3259 69.5479 19.3674C68.6522 11.8771 64.0777 5.97276 56.5664 2.67102C44.8783 -2.46615 29.1142 -0.0325804 18.2296 8.5902C17.3361 9.29817 17.1853 10.5963 17.8933 11.4901C18.6012 12.3836 19.8994 12.5341 20.7931 11.8264C30.5304 4.11283 44.5582 1.90249 54.905 6.45061C59.9741 8.67883 63.3951 12.328 64.8253 16.93C62.5561 16.1067 60.1027 15.649 57.4987 15.5876C46.8074 15.3363 36.9291 17.4626 28.1357 21.91C19.9363 26.0571 13.0102 32.1626 8.10697 39.5663C8.10642 39.5674 8.10559 39.5682 8.10504 39.5693C8.21707 31.2088 10.5009 23.833 14.8434 17.9666C15.5216 17.0503 15.3287 15.7577 14.4123 15.0792C13.496 14.4012 12.2034 14.5936 11.5249 15.5102C5.47466 23.6838 2.99072 34.3614 4.32215 46.4183C2.05704 51.4211 0.64303 56.7741 0.177841 62.2146C-0.53343 70.5297 0.891588 78.769 4.40335 86.713C4.41876 97.6411 4.7488 104.449 10.0875 114.961C10.6038 115.977 11.8464 116.383 12.8626 115.867C13.8789 115.35 14.2843 114.108 13.7682 113.091C8.83613 103.381 8.54546 97.2868 8.53142 86.6745C14.801 70.9772 29.0672 61.2441 45.8528 61.2441C62.6386 61.2441 76.9042 70.9772 83.1741 86.6745C83.1601 97.2868 82.8694 103.381 77.9373 113.091C71.8307 125.114 55.3985 137.298 45.967 136.79C45.8935 136.786 45.82 136.786 45.7468 136.79C38.726 137.165 27.3391 130.403 19.2621 121.063C18.5167 120.201 17.2128 120.106 16.3507 120.852C15.4883 121.597 15.3939 122.901 16.1396 123.763C23.6261 132.42 35.8597 140.933 45.1833 140.933C45.4093 140.933 45.6342 140.928 45.8566 140.918C51.3002 141.163 58.5202 138.252 65.6971 132.91C72.6498 127.735 78.4531 121.193 81.6181 114.961C86.9325 104.498 87.2837 97.7036 87.3022 86.8625C92.6601 78.0129 94.9178 68.3815 93.6601 59.6781ZM54.4943 57.9459C51.6734 57.3998 48.7826 57.1154 45.8536 57.1154C37.1438 57.1154 28.7591 59.5741 21.6085 64.2251C15.2717 68.3466 10.1505 74.0871 6.59442 80.9928C3.26378 71.2101 3.30093 61.0643 6.61506 51.7179C17.2662 41.5002 37.5278 37.3953 52.0362 42.579C53.1092 42.9627 54.2908 42.4034 54.6746 41.3296C55.058 40.2561 54.4987 39.0749 53.4252 38.6912C45.4613 35.8459 35.8724 35.3986 26.4244 37.4322C20.5102 38.705 15.0432 40.8539 10.4073 43.674C10.7737 43.0593 11.1502 42.4485 11.5496 41.8457C21.0279 27.5341 38.1672 19.2609 57.4018 19.7148C60.8814 19.7968 63.8594 20.711 66.3266 22.1911C66.4425 22.2811 66.5682 22.3576 66.7012 22.4214C72.1139 25.8691 74.9389 32.1114 74.9835 38.242C74.9474 44.9933 72.6 50.7008 68.3734 54.3141C64.659 57.4887 59.8607 58.7433 54.4943 57.9459ZM85.4637 81.6947C81.8977 74.4763 76.6483 68.4853 70.0985 64.2251C68.3153 63.0654 66.4554 62.042 64.533 61.159C66.9198 60.3445 69.1229 59.1042 71.0558 57.4518C75.3633 53.7694 78.0678 48.4021 78.8644 42.0843C90.5995 51.4949 93.1336 66.7013 85.4637 81.6947Z" fill="url(#paint0_linear)"/>
<path d="M84.0862 91.1872C84.0862 83.3536 76.1193 76.9803 66.3269 76.9803C56.5289 76.9803 48.5569 83.3536 48.5569 91.1872C48.5569 99.0262 56.5285 105.404 66.3269 105.404C76.1193 105.404 84.0862 99.0262 84.0862 91.1872ZM53.9375 91.1872C53.9375 86.1383 59.4951 82.0306 66.3266 82.0306C73.152 82.0306 78.7052 86.1383 78.7052 91.1872C78.7052 96.2415 73.152 100.354 66.3266 100.354C59.4954 100.353 53.9375 96.2415 53.9375 91.1872Z" fill="url(#paint1_linear)"/>
<path d="M24.8656 76.9803C15.0729 76.9803 7.10596 83.3536 7.10596 91.1872C7.10596 99.0262 15.0729 105.404 24.8656 105.404C34.6637 105.404 42.6353 99.0262 42.6353 91.1872C42.6353 83.3539 34.6637 76.9803 24.8656 76.9803ZM24.8656 100.354C18.0399 100.354 12.4866 96.2415 12.4866 91.1872C12.4866 86.1383 18.0399 82.0306 24.8656 82.0306C31.6967 82.0306 37.2543 86.1383 37.2543 91.1872C37.2543 96.2418 31.6967 100.354 24.8656 100.354Z" fill="url(#paint2_linear)"/>
<path d="M38.1919 116.051C37.6987 117.079 38.1322 118.312 39.16 118.805C40.9789 119.678 43.3123 120.114 45.6468 120.114C47.9807 120.114 50.3149 119.677 52.1336 118.805C53.1614 118.312 53.5949 117.079 53.1016 116.051C52.6084 115.023 51.3752 114.59 50.3477 115.083C47.8434 116.284 43.4499 116.284 40.9462 115.083C39.9184 114.59 38.6849 115.023 38.1919 116.051Z" fill="url(#paint3_linear)"/>
<path d="M54.2263 84.8643C54.8365 83.4691 54.3002 81.7956 53.0287 81.126C50.7785 79.9412 47.8918 79.349 45.0038 79.349C42.1164 79.349 39.2288 79.9416 36.9789 81.126C35.7073 81.7952 35.171 83.4691 35.7812 84.8643C36.3915 86.2591 37.917 86.8472 39.1882 86.1784C42.2864 84.5474 47.7215 84.5474 50.819 86.1784C52.0905 86.848 53.6164 86.2595 54.2263 84.8643Z" fill="url(#paint4_linear)"/>
<defs>
<linearGradient id="paint0_linear" x1="47" y1="0" x2="47" y2="140.933" gradientUnits="userSpaceOnUse">
<stop stop-color="#4FACFE"/>
<stop offset="1" stop-color="#00F2FE"/>
</linearGradient>
<linearGradient id="paint1_linear" x1="66.3216" y1="76.9803" x2="66.3216" y2="105.404" gradientUnits="userSpaceOnUse">
<stop stop-color="#4FACFE"/>
<stop offset="1" stop-color="#00F2FE"/>
</linearGradient>
<linearGradient id="paint2_linear" x1="24.8706" y1="76.9803" x2="24.8706" y2="105.404" gradientUnits="userSpaceOnUse">
<stop stop-color="#4FACFE"/>
<stop offset="1" stop-color="#00F2FE"/>
</linearGradient>
<linearGradient id="paint3_linear" x1="45.6468" y1="114.879" x2="45.6468" y2="120.114" gradientUnits="userSpaceOnUse">
<stop stop-color="#4FACFE"/>
<stop offset="1" stop-color="#00F2FE"/>
</linearGradient>
<linearGradient id="paint4_linear" x1="45.0038" y1="86.4548" x2="45.0038" y2="79.349" gradientUnits="userSpaceOnUse">
<stop stop-color="#4FACFE"/>
<stop offset="1" stop-color="#00F2FE"/>
</linearGradient>
</defs>
</svg>
