<svg width="132" height="134" viewBox="0 0 132 134" fill="none" xmlns="http://www.w3.org/2000/svg">
<path d="M126.607 99.1451H119.208C118.124 99.1451 117.245 98.2664 117.245 97.1821V82.7992C117.245 81.7148 118.124 80.8362 119.208 80.8362H126.607C129.218 80.8362 131.341 82.9596 131.341 85.5701V94.4111C131.341 97.0216 129.218 99.1451 126.607 99.1451ZM121.172 95.2191H126.608C127.046 95.2191 127.416 94.849 127.416 94.4111V85.5701C127.416 85.1322 127.046 84.7621 126.608 84.7621H121.172V95.2191Z" fill="url(#paint0_linear)"/>
<path d="M46.5409 75.0093C45.7246 74.2958 44.4847 74.3786 43.771 75.1952C36.6415 83.3491 36.6409 96.6233 43.7705 104.785C44.1584 105.23 44.7028 105.457 45.2495 105.457C45.7076 105.457 46.1679 105.298 46.5401 104.972C47.3567 104.259 47.4402 103.019 46.727 102.203C40.8425 95.4654 40.842 84.5089 46.7265 77.7792C47.4402 76.9631 47.3572 75.7231 46.5409 75.0093Z" fill="url(#paint1_linear)"/>
<path d="M55.6318 79.3061C54.8162 78.5923 53.5759 78.6743 52.8619 79.4903C47.7987 85.2759 47.7982 94.6961 52.8611 100.49C53.2493 100.933 53.7931 101.161 54.3399 101.161C54.7982 101.161 55.2586 101.001 55.6307 100.676C56.4471 99.9622 56.5306 98.7221 55.8171 97.9057C52.0003 93.538 51.9998 86.4367 55.8163 82.0757C56.5301 81.2602 56.4476 80.0201 55.6318 79.3061Z" fill="url(#paint2_linear)"/>
<path d="M113.81 75.4377H90.5792V73.6331C90.5792 72.6207 90.2434 70.983 88.3796 69.7458C91.6735 55.9178 86.8239 43.1872 75.2067 35.2677C74.9439 30.131 73.0322 25.3201 69.7653 21.624C68.6694 20.3842 67.4553 19.3116 66.1427 18.401C65.3695 11.9904 61.6901 6.70557 55.6949 3.44676C46.4228 -1.59313 33.0646 -1.0647 22.4543 4.76091C21.504 5.28254 21.1566 6.47603 21.6785 7.42638C22.2004 8.37699 23.3939 8.7243 24.344 8.20241C33.8299 2.99449 45.6756 2.46998 53.8199 6.89637C56.7489 8.48848 60.2066 11.3065 61.6668 16.0865C59.5031 15.2987 57.1632 14.8608 54.6799 14.8027C44.5145 14.5617 35.1218 16.5846 26.7608 20.8121C18.9644 24.7543 12.3784 30.5584 7.71491 37.5972C7.71099 37.6032 7.70732 37.6095 7.70314 37.6155C7.83557 25.3337 12.8773 17.6734 17.4691 13.2397C18.2491 12.4867 18.2708 11.244 17.5178 10.464C16.7648 9.68433 15.5221 9.66235 14.7421 10.4153C8.80188 16.1512 2.1793 26.6403 4.11585 44.1098C3.72849 44.9646 2.21987 48.8573 2.128 49.2931C1.11641 52.4957 0.455806 55.8 0.169734 59.1389C-0.507888 67.0482 0.846047 74.8865 4.18443 82.4445C4.18573 84.074 4.186 85.2563 4.186 86.1103C4.18626 88.5036 4.18626 88.5036 4.22552 88.8001C4.23049 88.8375 4.23625 88.8867 4.24462 89.0053C4.25876 95.2376 6.20551 102.632 9.59074 109.305C9.93675 109.987 10.6269 110.38 11.3428 110.38C11.6417 110.38 11.9447 110.312 12.2292 110.168C13.1961 109.677 13.5821 108.496 13.0917 107.529C9.96397 101.363 8.17006 94.5875 8.17006 88.9375C8.17006 88.8946 8.16876 88.8517 8.16588 88.8087C8.14598 88.508 8.13054 88.3871 8.11772 88.2903C8.11196 88.1382 8.11196 87.5213 8.1117 86.11C8.1117 85.2487 8.1117 84.0594 8.11013 82.4089C13.2194 69.6084 23.7718 60.9996 37.1162 58.7636C50.1551 56.5784 63.4217 61.1731 71.9665 70.7697C71.9638 70.8359 71.9602 70.9022 71.9602 70.9681V74.5245H69.1591C65.4499 74.5245 62.4321 77.5423 62.4321 81.2515V98.7302C62.4321 102.439 65.4499 105.457 69.1591 105.457H71.9602V109.006C71.9602 109.577 72.0633 110.152 72.2494 110.699C65.3138 121.191 51.7074 130.498 43.7076 130.059C43.6372 130.056 43.5663 130.056 43.4956 130.059C36.7762 130.424 25.5566 123.675 17.9667 114.693C17.267 113.865 16.0285 113.76 15.2004 114.46C14.3723 115.16 14.2684 116.399 14.968 117.227C22.1161 125.686 33.876 134.001 42.936 134C43.1596 134 43.3823 133.995 43.6024 133.985C48.473 134.2 54.7009 131.845 61.1559 127.323C66.5591 123.538 71.4707 118.677 74.9159 113.752C75.3991 113.962 75.905 114.069 76.4159 114.069C76.7834 114.069 77.1537 114.014 77.5199 113.902L86.1829 111.236C90.0068 110.053 90.5779 107.665 90.5779 106.348V104.543H113.809C117.868 104.543 121.17 101.241 121.17 97.182V82.7991C121.172 78.74 117.869 75.4377 113.81 75.4377ZM71.9607 101.531H69.1597C67.6152 101.531 66.3586 100.274 66.3586 98.7299V81.2513C66.3586 79.7068 67.6152 78.4502 69.1597 78.4502H71.9607V101.531ZM51.736 55.0745C51.725 55.0729 51.714 55.0727 51.703 55.0711C46.7021 54.1142 41.5279 54.043 36.4679 54.8913C29.5158 56.0563 22.9707 58.934 17.5403 63.2138C12.8349 66.9218 9.05838 71.546 6.26597 76.9942C3.28695 68.233 3.14143 59.1667 5.76554 50.7188C14.7919 40.2328 33.4499 34.8082 49.3516 38.0916C50.4132 38.3122 51.4517 37.628 51.6711 36.5662C51.8901 35.5044 51.2073 34.4663 50.1457 34.247C41.7575 32.5143 32.342 32.9758 23.6337 35.5447C18.3485 37.1038 13.5355 39.3806 9.49259 42.19C9.96214 41.3716 10.4599 40.5628 10.9881 39.7656C20.0016 26.1606 36.3009 18.2969 54.5878 18.7277C65.4852 18.9821 71.2477 27.7809 71.3114 36.3448C71.2763 42.7658 69.0421 48.1946 65.0193 51.6325C61.4661 54.6683 56.8724 55.8584 51.736 55.0745ZM74.0802 66.7103C73.9779 66.7857 73.8797 66.8671 73.7834 66.9513C70.2343 63.2735 66.0129 60.2892 61.3483 58.1475C63.6248 57.3733 65.7265 56.1918 67.5699 54.6167C71.671 51.1119 74.2454 46.004 75.0025 39.992C83.7339 46.9302 87.2008 57.0071 84.6869 68.2843L77.5243 66.0798C76.3478 65.7167 75.1248 65.9403 74.0802 66.7103ZM86.653 106.348C86.653 106.871 85.7665 107.255 85.0261 107.485L76.4361 110.128C76.2303 110.007 75.8867 109.501 75.8867 109.006V70.9679C75.8867 70.4787 76.2269 69.9754 76.4321 69.8518L85.031 72.4979C85.7709 72.7235 86.653 73.1033 86.653 73.6331V106.348ZM104.856 100.618H90.5792V79.3637H104.856V100.618ZM117.246 97.182C117.246 99.0762 115.705 100.618 113.81 100.618H108.782V79.3637H113.81C115.705 79.3637 117.246 80.905 117.246 82.7991V97.182Z" fill="url(#paint3_linear)"/>
<defs>
<linearGradient id="paint0_linear" x1="124.293" y1="80.8362" x2="124.293" y2="99.1451" gradientUnits="userSpaceOnUse">
<stop stop-color="#4FACFE"/>
<stop offset="1" stop-color="#00F2FE"/>
</linearGradient>
<linearGradient id="paint1_linear" x1="42.8177" y1="74.524" x2="42.8177" y2="105.457" gradientUnits="userSpaceOnUse">
<stop stop-color="#4FACFE"/>
<stop offset="1" stop-color="#00F2FE"/>
</linearGradient>
<linearGradient id="paint2_linear" x1="52.6831" y1="78.8202" x2="52.6831" y2="101.161" gradientUnits="userSpaceOnUse">
<stop stop-color="#4FACFE"/>
<stop offset="1" stop-color="#00F2FE"/>
</linearGradient>
<linearGradient id="paint3_linear" x1="60.5852" y1="0" x2="60.5852" y2="134" gradientUnits="userSpaceOnUse">
<stop stop-color="#4FACFE"/>
<stop offset="1" stop-color="#00F2FE"/>
</linearGradient>
</defs>
</svg>
