<svg width="102" height="132" viewBox="0 0 102 132" fill="none" xmlns="http://www.w3.org/2000/svg">
<path d="M11.9354 43.2482C9.97036 49.1763 4.50878 63.5146 4.59019 63.2923C-2.50194 82.8546 -0.088019 108.334 12.9124 129.874C13.7185 131.194 15.1531 131.999 16.6994 132H84.5291C86.0752 131.998 87.5094 131.193 88.3161 129.874C101.739 107.639 103.629 81.6971 96.3699 62.5067C93.8063 55.7711 91.344 49.4381 89.2932 43.246C97.1775 40.5284 101.222 37.0956 101.222 33.0072C101.222 28.417 95.9892 24.5375 86.0739 21.7407C86.5206 16.3893 87.975 11.1705 90.3604 6.35938C91.0379 4.99591 90.9626 3.3791 90.1612 2.08453C89.3598 0.789971 87.9463 0.00156868 86.4237 0H14.8048C13.2819 0.000807905 11.8676 0.788905 11.0657 2.0836C10.2638 3.37829 10.1883 4.99556 10.866 6.35938C13.2524 11.1693 14.7069 16.3876 15.1525 21.7385C5.23273 24.5375 0 28.4148 0 33.0072C0 37.0956 4.04448 40.5306 11.9354 43.2482ZM93.5005 67.7329C94.2587 70.2511 94.854 72.8156 95.2828 75.4103C90.8489 77.9453 85.1607 80.7641 78.3238 83.8074C67.6504 88.3986 58.1704 95.3734 50.611 104.197C43.0519 95.3739 33.5728 88.3991 22.9004 83.8074C16.0635 80.7575 10.3774 77.9475 5.94129 75.4125C6.3709 72.8187 6.96625 70.255 7.72367 67.7373C14.3845 72.7544 27.4531 79.2172 50.611 79.2172C73.7688 79.2172 86.844 72.7522 93.5005 67.7329ZM16.6796 127.599C7.99616 113.363 4.03151 96.7486 5.35156 80.126C9.65349 82.4959 14.9258 85.077 21.1114 87.8276C31.7781 92.3752 41.1558 99.4882 48.4105 108.534V127.599H16.6796ZM84.5291 127.599H52.8114V108.534C60.0669 99.4886 69.4454 92.3763 80.1128 87.8298C86.2983 85.077 91.5706 82.4937 95.8748 80.1282C97.1938 96.7523 93.2226 113.368 84.5291 127.599ZM96.821 33.0072C96.821 34.4463 94.4203 36.8118 87.9575 39.0585C86.6929 34.9186 86.0079 30.6235 85.922 26.2957C93.4014 28.5534 96.821 31.2182 96.821 33.0072ZM14.796 4.40095H86.4303C80.9423 15.5921 79.9823 28.4689 83.7502 40.3501C79.9115 41.3365 76.0169 42.0912 72.0876 42.61L78.4954 36.8426C79.37 36.0233 79.4281 34.6549 78.6263 33.7643C77.8244 32.8738 76.4574 32.7886 75.5512 33.5727L64.5488 43.4748C63.9954 44.008 63.7371 44.7778 63.8568 45.5369C63.9764 46.2959 64.459 46.9489 65.1495 47.286C76.5766 57.5821 75.868 57.2124 77.0167 57.2124C77.9275 57.2121 78.744 56.6508 79.0704 55.8004C79.3968 54.9501 79.1655 53.9866 78.4888 53.377L71.5353 47.1188C76.1047 46.5612 80.6321 45.7018 85.088 44.5465C87.1499 50.7782 89.5132 56.8691 91.9733 63.3275C73.1747 78.7309 28.0473 78.7309 9.25301 63.3275C11.6911 56.9197 14.0721 50.7958 16.1383 44.5465C20.5931 45.6998 25.119 46.5584 29.6866 47.1166L22.7331 53.3748C22.0547 53.9841 21.8223 54.9487 22.1489 55.8C22.4755 56.6514 23.2934 57.2131 24.2052 57.2124C25.3781 57.2124 24.9138 57.3334 36.6798 46.7447C37.143 46.3274 37.4075 45.7332 37.4075 45.1098C37.4075 44.4863 37.143 43.8921 36.6798 43.4748L25.6774 33.5727C24.7712 32.7886 23.4041 32.8738 22.6023 33.7643C21.8004 34.6549 21.8586 36.0233 22.7331 36.8426L29.1409 42.61C25.2113 42.0933 21.3166 41.3386 17.4784 40.3501C21.25 28.4691 20.289 15.5907 14.796 4.40095ZM15.3065 26.3001C15.2199 30.628 14.5342 34.9231 13.2689 39.0629C6.80387 36.814 4.40095 34.4463 4.40095 33.0072C4.40095 31.2182 7.82269 28.5534 15.3065 26.2891V26.3001Z" fill="url(#paint0_linear)"/>
<path d="M50.6109 55.0119C54.5468 54.681 57.4873 51.2504 57.2124 47.3102C57.4873 43.37 54.5468 39.9394 50.6109 39.6085C46.675 39.9394 43.7346 43.37 44.0095 47.3102C43.7346 51.2504 46.675 54.681 50.6109 55.0119ZM50.6109 44.0095C51.7838 44.0095 52.8114 45.5498 52.8114 47.3102C52.8114 49.0706 51.7838 50.6109 50.6109 50.6109C49.4381 50.6109 48.4105 49.0706 48.4105 47.3102C48.4105 45.5498 49.4381 44.0095 50.6109 44.0095Z" fill="url(#paint1_linear)"/>
<defs>
<linearGradient id="paint0_linear" x1="50.611" y1="0" x2="50.611" y2="132" gradientUnits="userSpaceOnUse">
<stop stop-color="#4FACFE"/>
<stop offset="1" stop-color="#00F2FE"/>
</linearGradient>
<linearGradient id="paint1_linear" x1="50.6109" y1="39.6085" x2="50.6109" y2="55.0119" gradientUnits="userSpaceOnUse">
<stop stop-color="#4FACFE"/>
<stop offset="1" stop-color="#00F2FE"/>
</linearGradient>
</defs>
</svg>
