<svg width="287" height="102" viewBox="0 0 287 102" fill="none" xmlns="http://www.w3.org/2000/svg">
<g clip-path="url(#clip0)">
<path d="M28.4276 79.6671C44.1056 79.6671 56.8151 66.9349 56.8151 51.2289C56.8151 35.5229 44.1056 22.7906 28.4276 22.7906C12.7496 22.7906 0.0400391 35.5229 0.0400391 51.2289C0.0400391 66.9349 12.7496 79.6671 28.4276 79.6671Z" fill="#88DBF0"/>
<path d="M237.274 85.6341C241.508 85.6341 244.94 82.1957 244.94 77.9541C244.94 73.7126 241.508 70.2742 237.274 70.2742C233.04 70.2742 229.608 73.7126 229.608 77.9541C229.608 82.1957 233.04 85.6341 237.274 85.6341Z" fill="#88DBF0"/>
<path fill-rule="evenodd" clip-rule="evenodd" d="M99.6966 23.5875V22.4081C97.8037 23.7364 95.5486 24.4486 93.2375 24.4481C91.7409 24.4676 90.2564 24.1776 88.8768 23.5963C87.4971 23.0149 86.252 22.1547 85.2193 21.0694C84.1442 20.0202 83.2936 18.7627 82.7192 17.3735C82.1448 15.9843 81.8588 14.4925 81.8784 12.9891C81.858 11.4878 82.1439 9.99824 82.7183 8.61156C83.2928 7.22487 84.1439 5.97029 85.2193 4.92468C86.2545 3.84363 87.5004 2.98728 88.8797 2.40879C90.259 1.8303 91.7423 1.54203 93.2375 1.56187C95.5485 1.56157 97.8036 2.27381 99.6966 3.60187V2.42249C97.7434 1.25546 95.5118 0.638733 93.2375 0.637494C91.6078 0.616851 89.9911 0.929924 88.4865 1.55751C86.9818 2.1851 85.621 3.11398 84.4875 4.28718C83.314 5.41168 82.3837 6.76576 81.7542 8.26541C81.1248 9.76505 80.8097 11.3783 80.8284 13.005C80.825 15.1391 81.3907 17.2355 82.4671 19.0772C83.5413 20.9605 85.0807 22.5356 86.9375 23.6512C88.7739 24.7842 90.8899 25.3804 93.0466 25.3725H93.3966C95.6227 25.3851 97.8069 24.7662 99.6966 23.5875V23.5875ZM103.992 25.0219H112.551V24.0975H105.042V15.9675H111.31V15.045H105.042V2.03999H112.551V1.11371H103.992V25.02V25.0219ZM133.297 22.3762L115.733 0.764994V25.0219H116.656V3.72746L134.219 25.3706V1.11371H133.297V22.3762ZM137.242 1.11562V2.03999H142.747V25.0219H143.797V2.03999H149.238V1.11371H137.242V1.11562ZM152.26 25.0219H153.278V17.4356L160.501 25.0219H161.869L153.66 16.3519H153.883C155.822 16.3036 157.663 15.4902 159.006 14.0887C159.758 13.419 160.36 12.5966 160.772 11.6762C161.183 10.7557 161.395 9.75819 161.392 8.74968C161.396 7.74322 161.189 6.74712 160.787 5.82504C160.384 4.90296 159.794 4.0752 159.053 3.39468C158.348 2.67029 157.504 2.09529 156.572 1.7038C155.64 1.3123 154.639 1.11229 153.628 1.11562H152.26V25.0219V25.0219ZM153.278 2.03999H153.692C154.562 2.04356 155.421 2.22331 156.22 2.56841C157.018 2.91352 157.738 3.41685 158.338 4.04812C158.975 4.65136 159.484 5.37771 159.834 6.1834C160.184 6.98909 160.368 7.85743 160.374 8.73607C160.38 9.61471 160.208 10.4855 159.869 11.2958C159.53 12.1062 159.031 12.8394 158.401 13.4512C157.817 14.0742 157.113 14.571 156.33 14.9108C155.548 15.2507 154.704 15.4265 153.851 15.4275H153.278V2.03999V2.03999ZM177.412 23.4103C178.08 22.7281 178.604 21.9176 178.951 21.0274C179.298 20.1372 179.462 19.1859 179.432 18.2306V1.11371H178.382V18.2625C178.411 19.0925 178.272 19.9198 177.974 20.6948C177.677 21.4698 177.225 22.1766 176.648 22.7728C175.496 23.9091 173.943 24.5447 172.326 24.5417C170.709 24.5387 169.158 23.8974 168.01 22.7568C167.431 22.1645 166.977 21.4611 166.676 20.6887C166.376 19.9164 166.234 19.0911 166.26 18.2625V1.11371H165.21V18.2962C165.181 19.2443 165.345 20.1882 165.693 21.0705C166.04 21.9528 166.563 22.755 167.23 23.4281C167.871 24.0905 168.641 24.6135 169.492 24.9644C170.343 25.3154 171.257 25.4869 172.178 25.4681H172.496C173.413 25.4836 174.323 25.3088 175.169 24.9546C176.015 24.6005 176.779 24.0746 177.412 23.4103ZM207.209 1.11371L196.454 23.1712L185.732 1.11371H184.204V25.02H185.159V2.35874L196.359 25.4681L207.623 2.35874V25.0219H208.673V1.11371H207.209ZM81.7817 63.27H82.8317V49.98L95.559 63.2719H96.959L83.2466 48.8962L94.1602 39.3656H92.8875L82.8012 48.1312V39.3637H81.783V63.27H81.7817ZM109.718 63.6843H110.195C111.807 63.6997 113.403 63.3772 114.883 62.7377C116.362 62.0982 117.692 61.1557 118.786 59.9709C119.938 58.8299 120.85 57.469 121.467 55.9689C122.085 54.4688 122.396 52.8598 122.382 51.2371C122.399 49.6229 122.086 48.0223 121.463 46.5339C120.839 45.0455 119.917 43.7009 118.754 42.5831C117.603 41.4297 116.236 40.5151 114.731 39.8916C113.226 39.2681 111.614 38.9479 109.985 38.9494C108.357 38.9509 106.745 39.274 105.241 39.9002C103.738 40.5265 102.372 41.4436 101.223 42.599C100.055 43.7109 99.127 45.0514 98.4976 46.5374C97.8681 48.0233 97.5502 49.623 97.5635 51.2371C97.553 52.8583 97.8672 54.4652 98.4875 55.9626C99.1078 57.46 100.022 58.8176 101.175 59.955C102.261 61.139 103.582 62.0824 105.053 62.7247C106.524 63.367 108.113 63.6938 109.718 63.6843V63.6843ZM117.991 59.3812C116.946 60.4509 115.699 61.3007 114.322 61.881C112.945 62.4612 111.466 62.7601 109.973 62.7601C108.479 62.7601 107 62.4612 105.623 61.881C104.246 61.3007 102.999 60.4509 101.954 59.3812C100.896 58.3215 100.056 57.0631 99.4827 55.678C98.9097 54.2929 98.6147 52.8082 98.6147 51.3089C98.6147 49.8095 98.9097 48.3249 99.4827 46.9398C100.056 45.5547 100.896 44.2963 101.954 43.2365C103.543 41.645 105.568 40.5618 107.772 40.1239C109.976 39.686 112.26 39.9133 114.335 40.7768C116.41 41.6404 118.183 43.1014 119.428 44.9749C120.674 46.8484 121.336 49.05 121.332 51.3009C121.352 52.8042 121.066 54.2959 120.492 55.6851C119.918 57.0743 119.067 58.3318 117.993 59.3812H117.991ZM135.809 42.7425V41.1187C135.262 40.4144 134.555 39.8505 133.747 39.4737C132.94 39.0968 132.054 38.9177 131.164 38.9512C129.884 38.9107 128.631 39.3289 127.632 40.1306C127.147 40.55 126.765 41.0761 126.517 41.6678C126.268 42.2594 126.16 42.9006 126.2 43.5412V43.7644C126.197 44.7106 126.486 45.6346 127.027 46.41C127.574 47.2128 128.277 47.896 129.095 48.4181C129.923 48.9494 130.824 49.5231 131.8 50.1394C132.776 50.7556 133.677 51.3453 134.504 51.9084C135.338 52.478 136.042 53.2165 136.573 54.0759C137.122 54.9486 137.409 55.961 137.4 56.9925V57.1837C137.431 57.9516 137.29 58.7166 136.987 59.4226C136.684 60.1286 136.227 60.7577 135.65 61.2637C134.51 62.2737 133.035 62.8196 131.514 62.7937C130.097 62.8446 128.7 62.4488 127.52 61.6622C126.458 60.9181 125.616 59.899 125.086 58.7137V60.435C125.739 61.4751 126.652 62.3257 127.735 62.9018C128.818 63.4778 130.033 63.7593 131.259 63.7181C133.113 63.7755 134.922 63.1392 136.334 61.9331C137.014 61.336 137.551 60.5935 137.907 59.7604C138.262 58.9274 138.426 58.025 138.386 57.12V56.8012C138.397 55.8309 138.185 54.8711 137.766 53.9962C137.379 53.1829 136.839 52.4522 136.175 51.8447C135.497 51.2372 134.774 50.683 134.011 50.1872C133.216 49.6666 132.42 49.1778 131.625 48.7209C130.884 48.2993 130.167 47.8364 129.477 47.3344C127.992 46.2294 127.25 45.0075 127.25 43.6687V43.5094C127.225 43.012 127.311 42.5154 127.501 42.0552C127.691 41.595 127.98 41.1827 128.348 40.8478C129.079 40.1998 130.028 39.8525 131.004 39.8756C131.996 39.8626 132.971 40.1276 133.82 40.6406C134.659 41.1513 135.346 41.8778 135.809 42.7444V42.7444V42.7425ZM165.05 39.3637L154.295 61.4212L143.573 39.3637H142.045V63.27H143V40.6087L154.2 63.7181L165.464 40.6087V63.2719H166.514V39.3656H165.05V39.3637ZM171.286 63.27H179.845V62.3475H172.336V54.2175H178.604V53.295H172.336V40.29H179.845V39.3656H171.286V63.2719V63.27ZM181.277 39.3637V40.29H186.782V63.2719H187.832V40.29H193.273V39.3656H181.277V39.3637ZM204.95 63.6843H205.427C207.038 63.6998 208.635 63.3774 210.115 62.7379C211.594 62.0984 212.924 61.1558 214.018 59.9709C215.17 58.8299 216.081 57.469 216.699 55.9689C217.317 54.4688 217.628 52.8598 217.614 51.2371C217.631 49.6229 217.318 48.0223 216.694 46.5339C216.07 45.0455 215.149 43.7009 213.986 42.5831C212.835 41.4297 211.468 40.5151 209.963 39.8916C208.458 39.2681 206.845 38.9479 205.217 38.9494C203.589 38.9509 201.977 39.274 200.473 39.9002C198.969 40.5265 197.604 41.4436 196.454 42.599C195.286 43.7109 194.359 45.0514 193.729 46.5374C193.1 48.0233 192.782 49.623 192.795 51.2371C192.785 52.8583 193.099 54.4652 193.719 55.9626C194.34 57.46 195.253 58.8176 196.407 59.955C197.492 61.1389 198.813 62.0823 200.285 62.7245C201.756 63.3668 203.345 63.6937 204.95 63.6843V63.6843V63.6843ZM213.223 59.3812C212.178 60.4509 210.931 61.3007 209.554 61.881C208.177 62.4612 206.698 62.7601 205.204 62.7601C203.711 62.7601 202.232 62.4612 200.855 61.881C199.478 61.3007 198.231 60.4509 197.186 59.3812C196.128 58.3215 195.288 57.0631 194.715 55.678C194.142 54.2929 193.847 52.8082 193.847 51.3089C193.847 49.8095 194.142 48.3249 194.715 46.9398C195.288 45.5547 196.128 44.2963 197.186 43.2365C198.775 41.645 200.8 40.5618 203.004 40.1239C205.208 39.686 207.492 39.9133 209.567 40.7768C211.642 41.6404 213.415 43.1014 214.66 44.9749C215.906 46.8484 216.568 49.05 216.564 51.3009C216.583 52.8043 216.297 54.2961 215.723 55.6853C215.149 57.0744 214.298 58.3319 213.223 59.3812H213.223ZM221.432 39.3637V63.27H229.864V62.3475H222.482V39.3637H221.432V39.3637ZM240.586 63.6843H241.064C242.675 63.6997 244.271 63.3772 245.751 62.7377C247.23 62.0982 248.56 61.1557 249.654 59.9709C250.806 58.8299 251.718 57.469 252.335 55.9689C252.953 54.4688 253.264 52.8598 253.25 51.2371C253.267 49.6229 252.955 48.0223 252.331 46.5339C251.707 45.0455 250.785 43.7009 249.623 42.5831C248.471 41.4297 247.104 40.5151 245.599 39.8916C244.094 39.2681 242.482 38.9479 240.853 38.9494C239.225 38.9509 237.613 39.274 236.109 39.9002C234.606 40.5265 233.24 41.4436 232.091 42.599C230.923 43.7109 229.995 45.0514 229.366 46.5374C228.736 48.0233 228.418 49.623 228.432 51.2371C228.421 52.8583 228.735 54.4652 229.356 55.9626C229.976 57.46 230.89 58.8176 232.043 59.955C233.129 61.139 234.45 62.0824 235.921 62.7247C237.392 63.367 238.981 63.6938 240.586 63.6843V63.6843ZM248.859 59.3812C247.814 60.4509 246.567 61.3007 245.19 61.881C243.813 62.4612 242.335 62.7601 240.841 62.7601C239.347 62.7601 237.868 62.4612 236.491 61.881C235.115 61.3007 233.867 60.4509 232.823 59.3812C231.764 58.3215 230.924 57.0631 230.351 55.678C229.778 54.2929 229.483 52.8082 229.483 51.3089C229.483 49.8095 229.778 48.3249 230.351 46.9398C230.924 45.5547 231.764 44.2963 232.823 43.2365C234.412 41.645 236.436 40.5618 238.64 40.1239C240.844 39.686 243.128 39.9133 245.203 40.7768C247.278 41.6404 249.051 43.1014 250.296 44.9749C251.542 46.8484 252.204 49.05 252.2 51.3009C252.22 52.8043 251.934 54.2961 251.359 55.6853C250.785 57.0744 249.935 58.3319 248.86 59.3812H248.859ZM273.932 54.1537V61.3575C272.252 62.2045 270.403 62.6621 268.523 62.6962C267.026 62.7157 265.542 62.4257 264.162 61.8444C262.782 61.263 261.537 60.4028 260.504 59.3175C259.446 58.2577 258.606 56.9993 258.033 55.6142C257.46 54.2291 257.165 52.7445 257.165 51.2451C257.165 49.7458 257.46 48.2611 258.033 46.876C258.606 45.4909 259.446 44.2325 260.504 43.1728C261.54 42.0917 262.785 41.2354 264.165 40.6569C265.544 40.0784 267.027 39.7901 268.523 39.81C270.834 39.8097 273.089 40.5219 274.982 41.85V40.6725C273.029 39.5055 270.797 38.8887 268.523 38.8875C266.358 38.8654 264.225 39.4169 262.342 40.4863C260.458 41.5557 258.89 43.1049 257.797 44.9768C256.703 46.8488 256.123 48.9771 256.116 51.146C256.108 53.3149 256.672 55.4473 257.752 57.3272C258.826 59.2105 260.366 60.7856 262.223 61.9012C264.059 63.0342 266.175 63.6304 268.332 63.6225H268.682C270.906 63.6532 273.092 63.0448 274.982 61.8694V53.2312H266.041V54.1556H273.932V54.1537ZM279.277 63.27H280.327V39.3637H279.277V63.27ZM285.418 63.27H286.468V39.3637H285.418V63.27ZM81.7817 101.52H90.3408V100.597H82.8317V92.4694H89.0999V91.545H82.8317V78.54H90.3408V77.6156H81.7817V101.522V101.52ZM103.132 80.9925V79.3687C102.584 78.6645 101.878 78.1007 101.07 77.7239C100.262 77.347 99.3766 77.1679 98.4863 77.2012C97.2064 77.1607 95.954 77.5788 94.9544 78.3806C94.4695 78.8001 94.0879 79.3262 93.8395 79.9178C93.5911 80.5095 93.4827 81.1506 93.5226 81.7912V82.0144C93.5193 82.9606 93.8083 83.8847 94.3499 84.66C94.8963 85.4629 95.5999 86.1461 96.4181 86.6681C97.2453 87.1998 98.1469 87.7735 99.1226 88.3894C100.098 89.0052 101 89.5949 101.827 90.1584C102.66 90.7281 103.365 91.4665 103.895 92.3259C104.444 93.1988 104.731 94.211 104.723 95.2425V95.4337C104.754 96.2016 104.612 96.9666 104.31 97.6726C104.007 98.3786 103.55 99.0077 102.973 99.5138C101.833 100.524 100.357 101.069 98.8362 101.044C97.4198 101.095 96.023 100.699 94.8431 99.9122C93.7801 99.1684 92.9388 98.1493 92.409 96.9638V98.685C93.0615 99.7252 93.9748 100.576 95.058 101.152C96.1411 101.728 97.3561 102.009 98.5817 101.968C100.436 102.025 102.245 101.389 103.657 100.183C104.337 99.586 104.874 98.8435 105.229 98.0104C105.585 97.1774 105.749 96.275 105.709 95.37V95.0513C105.72 94.0809 105.508 93.1211 105.089 92.2462C104.702 91.433 104.162 90.7023 103.498 90.0947C102.82 89.4872 102.097 88.9331 101.334 88.4372C100.539 87.917 99.7431 87.4282 98.9476 86.9709C98.2063 86.5495 97.4892 86.0866 96.7999 85.5844C95.315 84.4794 94.5726 83.2575 94.5726 81.9187V81.7594C94.548 81.262 94.6337 80.7654 94.8235 80.3053C95.0133 79.8451 95.3025 79.4327 95.6703 79.0978C96.4019 78.4498 97.3509 78.1025 98.3272 78.1256C99.3186 78.1126 100.294 78.3776 101.143 78.8906C101.981 79.4015 102.668 80.1279 103.132 80.9944V80.9925ZM105.391 77.6137V78.5381H110.895V101.52H111.945V78.54H117.386V77.6156H105.391V77.6137ZM120.409 101.52H128.968V100.597H121.459V92.4694H127.727V91.545H121.459V78.54H128.968V77.6156H120.409V101.522V101.52ZM130.4 77.6137V78.5381H135.904V101.52H136.954V78.54H142.395V77.6156H130.4V77.6137ZM151.973 91.9575L159.068 77.6137H158.114L151.527 90.8418L144.814 77.6137H143.668L150.923 91.9575V101.52H151.973V91.9575ZM177.777 100.087V98.9081C175.884 100.236 173.629 100.949 171.318 100.948C169.821 100.968 168.337 100.678 166.957 100.096C165.578 99.5149 164.333 98.6547 163.3 97.5694C162.241 96.5096 161.401 95.2512 160.828 93.8661C160.255 92.481 159.96 90.9964 159.96 89.497C159.96 87.9977 160.255 86.513 160.828 85.1279C161.401 83.7428 162.241 82.4844 163.3 81.4247C164.335 80.3437 165.581 79.4873 166.96 78.9088C168.34 78.3304 169.823 78.0421 171.318 78.0619C173.629 78.0616 175.884 78.7738 177.777 80.1019V78.9225C175.824 77.7557 173.592 77.139 171.318 77.1375C169.153 77.1154 167.021 77.6669 165.137 78.7363C163.254 79.8057 161.686 81.3549 160.592 83.2268C159.499 85.0988 158.919 87.2271 158.911 89.396C158.903 91.5649 159.468 93.6973 160.548 95.5772C161.622 97.4607 163.161 99.0358 165.018 100.151C166.854 101.284 168.97 101.881 171.127 101.872H171.477C173.703 101.885 175.887 101.266 177.777 100.087V100.087ZM182.041 100.597L192.573 77.6156H180.482V78.54H190.982L180.482 101.522H192.477V100.597H182.041V100.597ZM213.223 98.8763L195.659 77.265V101.522H196.582V80.2294L214.145 101.872V77.6156H213.223V98.8763V98.8763ZM218.918 101.522H227.477V100.597H219.968V92.4694H226.236V91.545H219.968V78.54H227.477V77.6156H218.918V101.522V101.522ZM239.695 78.54V94.3181C239.767 96.0776 239.202 97.804 238.104 99.1791C237.565 99.8101 236.889 100.309 236.128 100.638C235.367 100.967 234.541 101.116 233.713 101.076C232.801 101.08 231.898 100.886 231.069 100.506C230.239 100.127 229.502 99.5703 228.908 98.8763V100.183C230.193 101.342 231.857 101.988 233.586 102H233.904C234.838 102.031 235.767 101.853 236.623 101.478C237.479 101.103 238.241 100.541 238.852 99.8325C240.161 98.2531 240.836 96.2416 240.745 94.1906V77.6156H233.808V78.54H239.695V78.54Z" fill="#2F3857"/>
</g>
<defs>
<clipPath id="clip0">
<rect width="287" height="102" fill="white"/>
</clipPath>
</defs>
</svg>
