<svg width="326" height="115" viewBox="0 0 326 115" fill="none" xmlns="http://www.w3.org/2000/svg">
<path d="M32.2629 89.6582C50.0813 89.6582 64.5259 75.2136 64.5259 57.3953C64.5259 39.5769 50.0813 25.1323 32.2629 25.1323C14.4446 25.1323 0 39.5769 0 57.3953C0 75.2136 14.4446 89.6582 32.2629 89.6582Z" fill="white"/>
<path fill-rule="evenodd" clip-rule="evenodd" d="M113.251 24.6997V26.0377C111.103 27.3749 108.621 28.077 106.091 28.0627H105.693C103.242 28.0717 100.837 27.3953 98.7496 26.11C96.6393 24.8443 94.8898 23.0574 93.6689 20.9208C92.4456 18.8314 91.8026 16.4531 91.8066 14.0319C91.7852 12.1864 92.1434 10.3562 92.8588 8.65489C93.5741 6.95355 94.6315 5.41736 95.9652 4.14163C97.2534 2.81064 98.8 1.75684 100.51 1.04484C102.22 0.332847 104.058 -0.0223317 105.91 0.0010871C108.494 0.00249337 111.031 0.702166 113.251 2.02615V3.36414C111.099 1.85747 108.536 1.04944 105.91 1.04978C104.21 1.02728 102.525 1.35432 100.957 2.01061C99.3893 2.6669 97.9733 3.63842 96.7969 4.86486C95.5746 6.0511 94.6074 7.47441 93.9545 9.04759C93.3016 10.6208 92.9767 12.3107 92.9999 14.0138C92.9775 15.7195 93.3027 17.4119 93.9554 18.9879C94.6082 20.5639 95.575 21.9905 96.7969 23.1809C97.9706 24.4121 99.3857 25.3881 100.954 26.0476C102.522 26.7072 104.209 27.0362 105.91 27.014C108.536 27.0146 111.099 26.2066 113.251 24.6997ZM127.86 27.6649H118.132V27.6628V0.541346H127.86V1.59221H119.326V16.3463H126.45V17.3928H119.326V26.6163H127.86V27.6649ZM131.476 0.145735L151.438 24.6635V0.541346H152.486V28.0606L132.525 3.50662V27.6649H131.476V0.145735ZM155.922 1.59221V0.543516V0.541346H169.555V1.59221H163.371V27.6649H162.178V1.59221H155.922ZM174.147 27.6649H172.99V0.543516H174.545C175.693 0.539739 176.831 0.766654 177.89 1.2108C178.949 1.65494 179.908 2.30727 180.711 3.12909C181.552 3.90113 182.223 4.84022 182.68 5.88631C183.138 6.9324 183.372 8.06248 183.369 9.20429C183.371 10.3484 183.131 11.4801 182.664 12.5244C182.196 13.5686 181.512 14.5016 180.656 15.2614C179.13 16.8514 177.038 17.7741 174.834 17.8289H174.581L183.911 27.6649H182.356L174.147 19.0584V27.6649ZM174.617 1.59221H174.147V16.7802H174.798C175.767 16.7791 176.726 16.5796 177.616 16.1941C178.505 15.8085 179.306 15.245 179.969 14.5382C180.685 13.844 181.252 13.0122 181.638 12.0929C182.023 11.1735 182.218 10.1857 182.211 9.18885C182.204 8.19204 181.996 7.20692 181.598 6.29287C181.2 5.37882 180.622 4.55478 179.897 3.87041C179.216 3.15424 178.397 2.58321 177.49 2.1917C176.583 1.80018 175.606 1.59626 174.617 1.59221ZM203.324 23.1333C202.93 24.1432 202.335 25.0627 201.575 25.8366C200.856 26.5903 199.988 27.1869 199.026 27.5887C198.065 27.9905 197.03 28.1888 195.988 28.1712H195.627C194.581 28.1925 193.541 27.998 192.574 27.5998C191.607 27.2016 190.731 26.6083 190.004 25.8569C189.245 25.0932 188.651 24.1832 188.256 23.1822C187.861 22.1812 187.675 21.1103 187.707 20.0348V0.541346H188.901V19.9965C188.871 20.9365 189.032 21.8728 189.374 22.749C189.716 23.6252 190.231 24.4233 190.889 25.0953C192.195 26.3893 193.957 27.1168 195.795 27.1202C197.633 27.1236 199.398 26.4025 200.707 25.1134C201.363 24.437 201.876 23.6352 202.215 22.7559C202.553 21.8767 202.711 20.9381 202.678 19.9965V0.541346H203.872V19.9603C203.905 21.044 203.719 22.1234 203.324 23.1333ZM223.217 25.5654L235.44 0.541346H237.104V27.6649H235.91V1.95383L223.109 28.1712L210.38 1.95383V27.6628H209.295V0.541346H211.031L223.217 25.5654ZM94.0833 71.0571H92.8914V43.9356H94.0486V53.8823L105.512 43.9378H106.958L94.5549 54.7502L110.139 71.0592H108.548L94.0833 55.9797V71.0571ZM125.183 71.5272H124.64C122.816 71.538 121.01 71.1671 119.338 70.4385C117.666 69.7099 116.165 68.6395 114.931 67.2962C113.62 66.0059 112.581 64.4658 111.876 62.767C111.171 61.0682 110.814 59.2452 110.826 57.406C110.811 55.5747 111.172 53.7599 111.888 52.0741C112.603 50.3883 113.657 48.8675 114.985 47.6061C116.291 46.2952 117.843 45.2548 119.552 44.5443C121.261 43.8339 123.093 43.4673 124.944 43.4656C126.794 43.464 128.627 43.8272 130.337 44.5346C132.048 45.2419 133.601 46.2795 134.91 47.588C136.231 48.8561 137.279 50.3816 137.988 52.0701C138.697 53.7587 139.052 55.5747 139.033 57.406C139.048 59.2468 138.695 61.0722 137.993 62.7741C137.291 64.476 136.255 66.0198 134.946 67.3143C133.703 68.6585 132.191 69.7277 130.51 70.4533C128.828 71.1788 127.014 71.5446 125.183 71.5272ZM129.873 69.4813C131.437 68.823 132.855 67.8588 134.042 66.6453H134.044C135.266 65.4548 136.232 64.0281 136.885 62.4521C137.537 60.8761 137.862 59.1838 137.839 57.4783C137.844 54.9246 137.091 52.4269 135.676 50.3015C134.26 48.1761 132.246 46.5185 129.888 45.5388C127.529 44.5591 124.933 44.3013 122.429 44.7981C119.924 45.2948 117.623 46.5238 115.817 48.3293C114.613 49.5316 113.659 50.9592 113.008 52.5306C112.356 54.102 112.021 55.7863 112.021 57.4873C112.021 59.1883 112.356 60.8726 113.008 62.444C113.659 64.0154 114.613 65.443 115.817 66.6453C117.004 67.8588 118.421 68.823 119.986 69.4813C121.551 70.1395 123.232 70.4786 124.929 70.4786C126.627 70.4786 128.308 70.1395 129.873 69.4813ZM154.293 45.9267V47.7688V47.771C153.766 46.7878 152.986 45.9637 152.033 45.3843C151.068 44.8022 149.959 44.5016 148.832 44.5164C147.723 44.4902 146.644 44.8842 145.813 45.6193C145.395 45.9992 145.066 46.4671 144.85 46.9891C144.635 47.5112 144.537 48.0746 144.565 48.6389V48.8197C144.565 50.3385 145.409 51.7247 147.097 52.9783C147.88 53.5478 148.695 54.073 149.538 54.5513C150.442 55.0697 151.346 55.6241 152.25 56.2148C153.117 56.7773 153.939 57.406 154.709 58.0952C155.463 58.7844 156.077 59.6133 156.517 60.5361C156.993 61.5286 157.235 62.6175 157.222 63.7184V64.08C157.267 65.1067 157.081 66.1305 156.677 67.0756C156.273 68.0207 155.662 68.863 154.89 69.5404C153.285 70.9087 151.229 71.6306 149.122 71.5655C147.729 71.6123 146.348 71.2929 145.117 70.6394C143.886 69.9858 142.848 69.0209 142.106 67.8408V65.8881C142.709 67.2328 143.665 68.3889 144.873 69.2331C146.214 70.1255 147.801 70.5745 149.411 70.5168C151.14 70.5462 152.817 69.9269 154.112 68.781C154.768 68.207 155.287 67.4932 155.632 66.6923C155.976 65.8913 156.136 65.0234 156.101 64.1523V63.9353C156.111 62.7651 155.785 61.6166 155.161 60.6265C154.558 59.6515 153.757 58.8138 152.81 58.1675C151.87 57.5287 150.845 56.8597 149.736 56.1605C148.628 55.4614 147.603 54.8105 146.663 54.2078C145.733 53.6155 144.933 52.8404 144.312 51.9296C143.697 51.0499 143.369 50.0016 143.372 48.9282V48.675C143.327 47.9483 143.45 47.2208 143.732 46.5496C144.014 45.8784 144.448 45.2815 144.999 44.8057C146.135 43.8962 147.559 43.4217 149.013 43.4677C150.025 43.4297 151.032 43.6328 151.95 44.0604C152.868 44.4879 153.671 45.1276 154.293 45.9267ZM175.303 68.9597L187.526 43.9356V43.9378H189.189V71.0592H187.996V45.3481L175.194 71.5655L162.465 45.3481V71.0571H161.381V43.9356H163.116L175.303 68.9597ZM204.341 71.0571H194.613V43.9378H204.341V44.9865H195.807V59.7406H202.931V60.7871H195.807V70.0106H204.341V71.0571ZM205.968 44.9865V43.9378H219.601V44.9865H213.418V71.0592H212.224V44.9865H205.968ZM233.415 71.5272H232.873C231.049 71.5378 229.243 71.1669 227.571 70.4383C225.899 69.7097 224.397 68.6394 223.163 67.2962C221.853 66.0059 220.814 64.4658 220.109 62.767C219.404 61.0682 219.047 59.2452 219.059 57.406C219.044 55.5747 219.405 53.7599 220.12 52.0741C220.836 50.3883 221.89 48.8675 223.217 47.6061C224.524 46.2952 226.076 45.2548 227.785 44.5443C229.494 43.8339 231.326 43.4673 233.176 43.4656C235.027 43.464 236.86 43.8272 238.57 44.5346C240.28 45.2419 241.834 46.2795 243.143 47.588C244.464 48.8561 245.511 50.3816 246.221 52.0701C246.93 53.7587 247.285 55.5747 247.265 57.406C247.281 59.2468 246.928 61.0722 246.226 62.7741C245.524 64.476 244.488 66.0198 243.179 67.3143C241.935 68.6586 240.424 69.7279 238.743 70.4534C237.061 71.179 235.246 71.5447 233.415 71.5272ZM238.105 69.4813C239.67 68.823 241.088 67.8588 242.275 66.6453H242.276C243.497 65.4549 244.464 64.0283 245.117 62.4523C245.769 60.8763 246.094 59.1839 246.072 57.4783C246.077 54.9246 245.324 52.4269 243.908 50.3015C242.493 48.1761 240.478 46.5185 238.12 45.5388C235.762 44.5591 233.166 44.3013 230.661 44.7981C228.156 45.2948 225.855 46.5238 224.049 48.3293C222.846 49.5316 221.891 50.9592 221.24 52.5306C220.589 54.102 220.254 55.7863 220.254 57.4873C220.254 59.1883 220.589 60.8726 221.24 62.444C221.891 64.0154 222.846 65.443 224.049 66.6453C225.236 67.8588 226.654 68.823 228.219 69.4813C229.784 70.1395 231.464 70.4786 233.162 70.4786C234.86 70.4786 236.54 70.1395 238.105 69.4813ZM251.605 71.0571V43.9356H252.798V70.0106H261.188V71.0571H251.605ZM273.917 71.5272H273.374C271.55 71.538 269.744 71.1671 268.072 70.4385C266.4 69.7099 264.899 68.6395 263.665 67.2962C262.354 66.0059 261.315 64.4658 260.61 62.767C259.905 61.0682 259.548 59.2452 259.56 57.406C259.545 55.5747 259.906 53.7599 260.622 52.0741C261.337 50.3883 262.391 48.8675 263.719 47.6061C265.025 46.2952 266.577 45.2548 268.286 44.5443C269.995 43.8339 271.827 43.4673 273.678 43.4656C275.528 43.464 277.361 43.8272 279.071 44.5346C280.781 45.2419 282.335 46.2795 283.644 47.588C284.965 48.8561 286.013 50.3816 286.722 52.0701C287.431 53.7587 287.786 55.5747 287.767 57.406C287.782 59.2468 287.429 61.0722 286.727 62.7741C286.025 64.476 284.989 66.0198 283.68 67.3143C282.436 68.6585 280.925 69.7277 279.244 70.4533C277.562 71.1788 275.748 71.5446 273.917 71.5272ZM278.606 69.4813C280.171 68.823 281.589 67.8588 282.776 66.6453H282.777C283.999 65.4549 284.965 64.0283 285.618 62.4523C286.271 60.8763 286.596 59.1839 286.573 57.4783C286.578 54.9246 285.825 52.4269 284.41 50.3015C282.994 48.1761 280.98 46.5185 278.622 45.5388C276.263 44.5591 273.667 44.3013 271.162 44.7981C268.658 45.2948 266.356 46.5238 264.551 48.3293C263.347 49.5316 262.393 50.9592 261.741 52.5306C261.09 54.102 260.755 55.7863 260.755 57.4873C260.755 59.1883 261.09 60.8726 261.741 62.444C262.393 64.0154 263.347 65.443 264.551 66.6453C265.738 67.8588 267.155 68.823 268.72 69.4813C270.285 70.1395 271.966 70.4786 273.663 70.4786C275.361 70.4786 277.042 70.1395 278.606 69.4813ZM311.272 68.8874V60.7169H302.304V59.6682H312.465V69.4681C310.318 70.8017 307.833 71.4919 305.305 71.457H304.907C302.456 71.466 300.051 70.7896 297.964 69.5043C295.854 68.2386 294.104 66.4517 292.883 64.315C291.656 62.1823 291.015 59.7631 291.023 57.3025C291.032 54.8419 291.692 52.4274 292.934 50.3037C294.177 48.1799 295.959 46.4224 298.1 45.2092C300.24 43.996 302.664 43.3703 305.124 43.3954C307.709 43.3968 310.245 44.0965 312.465 45.4204V46.7563C310.314 45.2496 307.751 44.4416 305.124 44.4419C303.425 44.4194 301.739 44.7464 300.171 45.4027C298.604 46.059 297.188 47.0305 296.011 48.257C294.808 49.4593 293.854 50.8869 293.202 52.4583C292.551 54.0297 292.216 55.714 292.216 57.415C292.216 59.116 292.551 60.8003 293.202 62.3717C293.854 63.9431 294.808 65.3707 296.011 66.573C297.185 67.8043 298.6 68.7802 300.168 69.4397C301.736 70.0993 303.423 70.4283 305.124 70.4062C307.261 70.3674 309.362 69.8484 311.272 68.8874ZM318.54 71.0571H317.347V43.9356H318.54V71.0571ZM325.52 71.0571H324.326V43.9356H325.52V71.0571ZM102.618 114.451H92.89V87.3321H102.618V88.3808H94.0833V103.135H101.207V104.184H94.0833V113.405H102.618V114.451ZM117.155 89.321V91.1631V91.1653C116.628 90.1822 115.847 89.3582 114.894 88.7786C113.93 88.1965 112.821 87.8959 111.694 87.9107C110.585 87.8845 109.506 88.2785 108.675 89.0136C108.257 89.3936 107.928 89.8614 107.712 90.3835C107.496 90.9056 107.399 91.4689 107.427 92.0331V92.214C107.427 93.7328 108.271 95.119 109.958 96.3726C110.742 96.9423 111.557 97.4675 112.399 97.9456C113.303 98.4644 114.207 99.0189 115.111 99.6091C115.978 100.172 116.8 100.8 117.57 101.489C118.325 102.179 118.939 103.008 119.379 103.93C119.855 104.923 120.096 106.012 120.084 107.113V107.474C120.129 108.501 119.942 109.525 119.539 110.47C119.135 111.415 118.524 112.257 117.751 112.935C116.147 114.303 114.091 115.025 111.983 114.96C110.591 115.007 109.21 114.687 107.979 114.034C106.748 113.38 105.71 112.415 104.968 111.235V109.282C105.57 110.627 106.526 111.784 107.734 112.627C109.075 113.52 110.663 113.969 112.273 113.911C114.002 113.94 115.679 113.321 116.974 112.175C117.63 111.601 118.149 110.888 118.493 110.087C118.837 109.286 118.998 108.418 118.963 107.547V107.33C118.972 106.159 118.646 105.011 118.023 104.021C117.42 103.046 116.619 102.208 115.672 101.562C114.732 100.922 113.707 100.253 112.598 99.5548C111.489 98.8562 110.465 98.2053 109.524 97.6021C108.595 97.0099 107.795 96.2348 107.174 95.3239C106.558 94.4444 106.23 93.396 106.234 92.3224V92.0693C106.188 91.3426 106.312 90.6152 106.594 89.9439C106.876 89.2727 107.31 88.6758 107.861 88.2C108.997 87.2904 110.42 86.816 111.875 86.862C112.887 86.8242 113.893 87.0274 114.811 87.4549C115.729 87.8825 116.532 88.5221 117.155 89.321ZM119.722 88.3786V87.3321H133.355V88.3808H127.171V114.451H125.978V88.3786H119.722ZM146.518 114.451H136.791V87.3321H146.518V88.3808H137.984V103.135H145.108V104.184H137.984V113.405H146.518V114.451ZM148.145 88.3786V87.3321H161.778V88.3808H155.595V114.451H154.401V88.3786H148.145ZM180.727 87.3299L172.663 103.603V114.451H171.47V103.603L163.225 87.3299H164.527L172.157 102.337L179.642 87.3299H180.727ZM201.99 111.488V112.826C199.843 114.163 197.36 114.865 194.83 114.851H194.433C191.981 114.86 189.577 114.184 187.49 112.899C185.379 111.633 183.629 109.846 182.409 107.709C181.182 105.577 180.54 103.157 180.549 100.697C180.558 98.2362 181.217 95.8217 182.46 93.698C183.702 91.5742 185.484 89.8167 187.625 88.6035C189.766 87.3903 192.189 86.7646 194.65 86.7897C197.234 86.7913 199.771 87.491 201.99 88.8147V90.1527C199.839 88.6461 197.276 87.8381 194.65 87.8384C192.95 87.8159 191.265 88.143 189.697 88.7993C188.129 89.4555 186.713 90.427 185.537 91.6535C184.334 92.8557 183.379 94.2834 182.728 95.8548C182.076 97.4261 181.741 99.1105 181.741 100.811C181.741 102.512 182.076 104.197 182.728 105.768C183.379 107.34 184.334 108.767 185.537 109.969C186.71 111.201 188.126 112.177 189.694 112.836C191.262 113.496 192.949 113.825 194.65 113.803C197.276 113.803 199.839 112.995 201.99 111.488ZM218.806 87.3321L206.836 113.405H218.697V114.454H205.064L216.998 88.3808H205.064V87.3321H218.806ZM222.313 86.9343L242.275 111.452V87.3321H243.324V114.851L223.362 90.2974V114.454H222.313V86.9343ZM258.475 114.454H248.748V87.3321H258.475V88.3808H249.941V103.135H257.065V104.184H249.941V113.405H258.475V114.454ZM272.361 95.9877V88.3808H265.671V87.3321H273.554V95.4909C273.172 95.6847 272.773 95.8512 272.361 95.9877ZM272.361 95.9877C271.499 96.273 270.578 96.4274 269.62 96.4274C264.808 96.4274 260.908 92.5265 260.908 87.7145C260.908 82.9026 264.808 79.0017 269.62 79.0017C274.432 79.0017 278.333 82.9026 278.333 87.7145C278.333 91.1111 276.39 94.0536 273.554 95.4909V106.136C273.658 108.463 272.891 110.745 271.403 112.537C270.708 113.34 269.843 113.978 268.87 114.404C267.897 114.829 266.841 115.032 265.779 114.996H265.418C263.453 114.982 261.562 114.249 260.102 112.935V111.452C260.776 112.239 261.614 112.871 262.557 113.301C263.5 113.732 264.526 113.953 265.562 113.947C266.503 113.994 267.442 113.824 268.307 113.451C269.172 113.078 269.941 112.512 270.553 111.796C271.801 110.236 272.443 108.277 272.361 106.281V95.9877Z" fill="white"/>
</svg>
