<svg width="111" height="111" viewBox="0 0 111 111" fill="none" xmlns="http://www.w3.org/2000/svg">
<path d="M54.8246 73.8514C48.7759 72.5069 42.7622 76.3344 41.4181 82.3822C40.0739 88.4302 43.901 94.4445 49.949 95.7887C50.767 95.9706 51.5837 96.0577 52.3886 96.0577C57.538 96.0577 62.1931 92.4884 63.3558 87.2579C63.3558 87.2577 63.3558 87.2577 63.3558 87.2577C64.6995 81.2093 60.8723 75.1954 54.8246 73.8514ZM59.1232 86.317C58.2977 90.0316 54.6039 92.3819 50.8897 91.5566C47.1751 90.7312 44.8246 87.0375 45.6499 83.3231C46.3641 80.1106 49.2225 77.9183 52.3854 77.9183C52.8797 77.9183 53.3818 77.9719 53.8837 78.0835C57.5983 78.9091 59.9488 82.6029 59.1232 86.317Z" fill="url(#paint0_linear)"/>
<path d="M110.206 38.8296C110.362 38.9593 110.517 39.0883 110.205 38.829C109.894 38.5699 110.049 38.6989 110.205 38.8285C109.581 38.3097 108.72 38.1823 107.973 38.499C105.69 39.4659 103.56 40.3253 101.407 41.0856C101.682 38.8223 101.68 36.4891 101.37 34.1264C101.214 32.9395 100.125 32.1035 98.9382 32.2596C97.7512 32.4155 96.9152 33.5042 97.0713 34.6912C97.4249 37.3816 97.3024 40.0268 96.7719 42.5427C94.3709 43.2018 91.8043 43.7559 88.8645 44.2153C89.6413 41.0279 89.8544 37.6487 89.4021 34.2058C89.246 33.0188 88.1569 32.1833 86.9703 32.3389C85.7834 32.4948 84.9476 33.5836 85.1035 34.7705C85.5627 38.2644 85.2076 41.6809 84.1877 44.8295C81.7692 45.0938 79.1034 45.3112 76.1136 45.4851C77.0842 42.1269 77.3602 38.5723 76.8908 34.9997C76.7347 33.8127 75.6455 32.9761 74.459 33.1328C73.272 33.2887 72.4363 34.3775 72.5921 35.5644C73.058 39.1097 72.6199 42.5687 71.4587 45.7105C68.7743 45.8172 65.8539 45.897 62.6566 45.9516C63.212 42.7823 63.0836 39.444 62.1538 36.1455C61.8293 34.9936 60.633 34.3226 59.4794 34.6472C58.3273 34.9719 57.6563 36.1693 57.9811 37.3216C58.793 40.2017 58.8702 43.1708 58.2406 46.0093C55.8821 46.0314 53.3898 46.0427 50.7427 46.0427C49.8291 46.0427 48.891 46.0414 47.9412 46.0388C47.8942 46.0388 47.8489 46.0386 47.8018 46.0386C30.8091 46.0386 17.1439 54.4334 8.27976 70.3216C1.68739 82.1376 0.090684 93.797 0.0189242 94.3424C-0.12156 95.3952 0.554629 96.4239 1.57661 96.7135C2.59122 97.0012 3.70057 96.4887 4.13958 95.5285C4.18056 95.4386 8.34393 86.4274 16.6962 78.0064C22.6547 71.9989 29.099 67.8488 35.9723 65.5698C31.7983 69.1138 28.9023 73.8944 27.6939 79.3325C25.263 90.2712 30.3467 101.159 39.4996 106.587C33.6539 106.346 27.4841 105.509 20.999 104.068C19.8318 103.809 18.6723 104.545 18.4126 105.714C18.1529 106.882 18.8898 108.04 20.0586 108.3C28.1633 110.101 35.8156 111 42.9983 111C57.0268 111 69.2574 107.569 79.5244 100.728C91.2239 92.9326 98.0257 82.0973 101.671 74.3802C105.254 66.7958 106.559 60.7599 106.805 59.5123C106.819 59.467 106.833 59.4219 106.843 59.375L110.934 40.9649C111.11 40.1731 110.829 39.3491 110.206 38.8296ZM87.2921 48.8298C90.167 48.4428 92.7467 47.9722 95.1713 47.4059C91.9512 54.4681 85.2936 59.7805 77.0647 60.9108C76.9955 60.9115 76.9272 60.9126 76.8578 60.9132C81.463 58.0029 85.0955 53.775 87.2921 48.8298ZM71.8032 53.9883C72.7879 52.7055 73.6393 51.3494 74.3562 49.9374C77.185 49.7983 79.7573 49.6224 82.1301 49.4058C78.6865 55.2657 72.6992 59.5522 65.4764 60.5642C65.141 60.5414 64.8013 60.5167 64.4616 60.4915C67.2696 58.8404 69.7608 56.6486 71.8032 53.9883ZM61.4206 50.3131C64.2019 50.2748 66.7898 50.2188 69.206 50.1427C65.9941 54.9762 60.8439 58.4873 54.7038 59.439C57.7092 57.0167 60.014 53.8558 61.4206 50.3131ZM30.7375 62.9639C24.6364 65.6179 18.8764 69.6519 13.6184 74.9532C11.4556 77.1338 9.56233 79.3405 7.93158 81.438C9.01123 78.5486 10.3872 75.4278 12.1275 72.3239C20.2946 57.7582 32.295 50.3736 47.7982 50.3736C47.8417 50.3736 47.886 50.3736 47.9295 50.3738C48.9669 50.3767 49.9776 50.3782 50.9725 50.3782C52.946 50.3782 54.8371 50.3725 56.6524 50.3608C56.5626 50.5341 56.4744 50.7077 56.3785 50.8788C54.0805 54.9806 50.3358 57.9539 45.8223 59.2729C40.6191 59.6285 35.5719 60.861 30.7375 62.9639ZM63.6395 102.503C58.9159 105.509 53.3055 106.495 47.8394 105.281C36.5577 102.773 29.4185 91.5549 31.9258 80.2728C34.0944 70.5152 42.7776 63.8575 52.3834 63.8575C53.8843 63.8575 55.4092 64.0203 56.9338 64.359C62.399 65.5737 67.064 68.8437 70.0699 73.5672C73.0756 78.2904 74.062 83.9017 72.8473 89.3672C71.6328 94.832 68.3629 99.4972 63.6395 102.503ZM97.6851 72.6675C94.2703 79.8552 87.9234 89.9369 77.0783 97.148C75.717 98.0531 74.3172 98.8937 72.8792 99.67C74.882 96.9076 76.3171 93.7387 77.0796 90.3074C78.5454 83.7118 77.3552 76.9402 73.7275 71.2397C72.213 68.8595 70.3483 66.7867 68.2109 65.0709C70.8729 65.2036 73.3886 65.2639 75.7559 65.2639C88.5876 65.2635 97.1121 63.5178 101.659 62.2272C100.916 64.8006 99.6629 68.505 97.6851 72.6675ZM102.864 57.2944C101.122 57.913 96.9959 59.1743 90.3521 60.0335C95.0634 56.5402 98.5841 51.6124 100.346 45.9902C102.173 45.417 103.968 44.7772 105.805 44.0633L102.864 57.2944Z" fill="url(#paint1_linear)"/>
<path d="M108.818 8.30939C107.621 8.30939 106.65 9.27978 106.65 10.4771V12.1391H104.049V6.57524C104.049 5.37808 103.079 4.40748 101.882 4.40748C100.684 4.40748 99.7138 5.37787 99.7138 6.57524V12.1391H97.1127V6.57524C97.1127 5.37808 96.1421 4.40748 94.9449 4.40748C93.7478 4.40748 92.7772 5.37787 92.7772 6.57524V12.1391H90.176V6.57524C90.176 5.37808 89.2054 4.40748 88.0083 4.40748C86.8111 4.40748 85.8405 5.37787 85.8405 6.57524V12.1391H83.2394V6.57524C83.2394 5.37808 82.2688 4.40748 81.0717 4.40748C79.8745 4.40748 78.9039 5.37787 78.9039 6.57524V12.1391H76.3028V10.4771C76.3028 9.27999 75.3322 8.30939 74.135 8.30939C72.9379 8.30939 71.9673 9.27978 71.9673 10.4771V12.1391H57.6604V2.16775C57.6606 0.970383 56.69 0 55.4929 0H31.2788C20.617 0 10.1617 2.92112 1.04388 8.44771C0.395654 8.84076 0 9.5434 0 10.3015V18.312C0 19.0701 0.395871 19.773 1.04388 20.1658C10.1617 25.6924 20.617 28.6135 31.2788 28.6135H55.4926C56.6896 28.6135 57.6604 27.6431 57.6604 26.4458V16.4744H71.9673V18.1364C71.9673 19.3335 72.9379 20.3041 74.135 20.3041C75.3322 20.3041 76.3028 19.3337 76.3028 18.1364V16.4744H78.9039V22.0383C78.9039 23.2354 79.8745 24.206 81.0717 24.206C82.2688 24.206 83.2394 23.2356 83.2394 22.0383V16.4744H85.8405V22.0383C85.8405 23.2354 86.8111 24.206 88.0083 24.206C89.2054 24.206 90.176 23.2356 90.176 22.0383V16.4744H92.7772V22.0383C92.7772 23.2354 93.7478 24.206 94.9449 24.206C96.1421 24.206 97.1127 23.2356 97.1127 22.0383V16.4744H99.7138V22.0383C99.7138 23.2354 100.684 24.206 101.882 24.206C103.079 24.206 104.049 23.2356 104.049 22.0383V16.4744H106.651V18.1364C106.651 19.3335 107.621 20.3041 108.818 20.3041C110.016 20.3041 110.986 19.3337 110.986 18.1364V10.4769C110.986 9.28021 110.015 8.30939 108.818 8.30939ZM53.3251 24.2782H31.279C21.8143 24.2782 12.5248 21.7909 4.33529 17.0751V11.5382C12.525 6.8226 21.8143 4.33529 31.279 4.33529H43.7873V17.398C43.7873 18.5951 44.7579 19.5657 45.9551 19.5657C47.1523 19.5657 48.1229 18.5953 48.1229 17.398V4.33529H53.3253V24.2782H53.3251Z" fill="url(#paint2_linear)"/>
<path d="M12.5875 101.216C12.1845 100.813 11.6252 100.581 11.0552 100.581C10.485 100.581 9.92591 100.813 9.52267 101.216C9.11942 101.62 8.88745 102.179 8.88745 102.749C8.88745 103.319 9.11921 103.878 9.52267 104.281C9.92591 104.684 10.485 104.917 11.0552 104.917C11.6254 104.917 12.1845 104.685 12.5875 104.281C12.9908 103.878 13.223 103.319 13.223 102.749C13.223 102.179 12.991 101.619 12.5875 101.216Z" fill="url(#paint3_linear)"/>
<defs>
<linearGradient id="paint0_linear" x1="52.3868" y1="73.5824" x2="52.3868" y2="96.0577" gradientUnits="userSpaceOnUse">
<stop stop-color="#4FACFE"/>
<stop offset="1" stop-color="#00F2FE"/>
</linearGradient>
<linearGradient id="paint1_linear" x1="55.4933" y1="32.2408" x2="55.4933" y2="111" gradientUnits="userSpaceOnUse">
<stop stop-color="#4FACFE"/>
<stop offset="1" stop-color="#00F2FE"/>
</linearGradient>
<linearGradient id="paint2_linear" x1="55.4931" y1="0" x2="55.4931" y2="28.6135" gradientUnits="userSpaceOnUse">
<stop stop-color="#4FACFE"/>
<stop offset="1" stop-color="#00F2FE"/>
</linearGradient>
<linearGradient id="paint3_linear" x1="11.0552" y1="100.581" x2="11.0552" y2="104.917" gradientUnits="userSpaceOnUse">
<stop stop-color="#4FACFE"/>
<stop offset="1" stop-color="#00F2FE"/>
</linearGradient>
</defs>
</svg>
