<svg width="62" height="83" viewBox="0 0 62 83" fill="none" xmlns="http://www.w3.org/2000/svg">
<path d="M32.5693 78.3934C8.92788 49.3385 4.85459 46.5554 3.45967 34.9971C1.54894 19.1647 11.7412 4.9131 26.2247 3.16515C40.7083 1.4172 53.9984 12.8348 55.9092 28.6672C57.3041 40.2255 54.0099 43.8978 37.9595 77.7428C36.9054 79.9566 34.1197 80.2926 32.5693 78.3934ZM31.1259 43.7767C37.1608 43.0484 41.4075 37.1102 40.6114 30.5134C39.8153 23.9166 34.2777 19.1592 28.2429 19.8876C22.2081 20.6159 17.9613 26.554 18.7574 33.1509C19.5536 39.7477 25.0911 44.505 31.1259 43.7767Z" fill="url(#paint0_linear)" fill-opacity="0.6"/>
<path d="M31.6655 75.6813C10.8546 44.0032 6.9917 40.752 6.9917 29.1099C6.9917 13.1626 19.3038 0.234863 34.4917 0.234863C49.6796 0.234863 61.9917 13.1626 61.9917 29.1099C61.9917 40.752 58.1288 44.0032 37.3179 75.6813C35.9522 77.7528 33.031 77.7526 31.6655 75.6813ZM34.4917 41.1411C40.82 41.1411 45.95 35.7546 45.95 29.1099C45.95 22.4652 40.82 17.0786 34.4917 17.0786C28.1634 17.0786 23.0334 22.4652 23.0334 29.1099C23.0334 35.7546 28.1634 41.1411 34.4917 41.1411Z" fill="url(#paint1_linear)" fill-opacity="0.1"/>
<path d="M31.6655 77.6813C10.8546 46.0032 6.9917 42.752 6.9917 31.1099C6.9917 15.1626 19.3038 2.23486 34.4917 2.23486C49.6796 2.23486 61.9917 15.1626 61.9917 31.1099C61.9917 42.752 58.1288 46.0032 37.3179 77.6813C35.9522 79.7528 33.031 79.7526 31.6655 77.6813ZM34.4917 43.1411C40.82 43.1411 45.95 37.7546 45.95 31.1099C45.95 24.4652 40.82 19.0786 34.4917 19.0786C28.1634 19.0786 23.0334 24.4652 23.0334 31.1099C23.0334 37.7546 28.1634 43.1411 34.4917 43.1411Z" fill="url(#paint2_linear)" fill-opacity="0.5"/>
<defs>
<linearGradient id="paint0_linear" x1="4.6129" y1="44.5527" x2="57.0624" y2="38.2229" gradientUnits="userSpaceOnUse">
<stop stop-color="#FBED96"/>
<stop offset="1" stop-color="#ABECD6"/>
</linearGradient>
<linearGradient id="paint1_linear" x1="6.9917" y1="38.7349" x2="61.9917" y2="38.7349" gradientUnits="userSpaceOnUse">
<stop stop-color="#CC2B5E"/>
<stop offset="1" stop-color="#753A88"/>
</linearGradient>
<linearGradient id="paint2_linear" x1="2.04788" y1="6.58164" x2="62.2025" y2="51.9432" gradientUnits="userSpaceOnUse">
<stop stop-color="#4FACFE"/>
<stop offset="1" stop-color="#00F2FE"/>
</linearGradient>
</defs>
</svg>
