<svg width="114" height="114" viewBox="0 0 114 114" fill="none" xmlns="http://www.w3.org/2000/svg">
<path d="M109.294 81.9326L98.3227 92.9042L85.487 80.0687L96.1614 69.3944L49.9206 23.1122L36.5899 23.3871L27.0451 13.8423L22.7518 18.1356L5.04708 0L0.284912 4.64906L18.0455 22.8421L14.1442 26.7432L23.6721 36.2711L23.2323 49.765L69.4907 96.0648L80.7809 84.7746L93.6164 97.6101L81.9325 109.294L86.6386 114L114 86.6387L109.294 81.9326ZM80.7809 75.3629L75.3604 69.9423L81.3334 63.9694L86.7515 69.3924L80.7809 75.3629ZM27.0451 23.2544L30.5339 26.7432L27.0451 30.232L23.5563 26.7432L27.0451 23.2544ZM30.3281 36.3611L36.6467 30.0426L47.2193 29.8246L48.938 31.5446L43.7793 36.7033L48.4851 41.4092L53.6416 36.2527L58.3506 40.9659L53.152 46.1644L57.8578 50.8703L63.0544 45.6739L67.7086 50.3323L62.3118 55.7291L67.0177 60.4349L72.4124 55.0402L76.6297 59.2613L59.3712 76.5198L29.9781 47.1007L30.3281 36.3611ZM69.4929 86.6509L64.0748 81.2279L70.6545 74.6482L76.0751 80.0687L69.4929 86.6509Z" fill="url(#paint0_linear)"/>
<path d="M32.3219 73.925V67.2454H0.0155859V73.925H5.68864L0 83.8887V114H32.565V83.8887L26.8764 73.9248H32.3219V73.925ZM6.67969 107.32V88.1149H25.8853V107.32H6.67969ZM23.4724 81.4352H9.09261L13.3805 73.925H19.1847L23.4724 81.4352Z" fill="url(#paint1_linear)"/>
<defs>
<linearGradient id="paint0_linear" x1="57.1425" y1="0" x2="57.1425" y2="114" gradientUnits="userSpaceOnUse">
<stop stop-color="#4FACFE"/>
<stop offset="1" stop-color="#00F2FE"/>
</linearGradient>
<linearGradient id="paint1_linear" x1="16.2825" y1="67.2454" x2="16.2825" y2="114" gradientUnits="userSpaceOnUse">
<stop stop-color="#4FACFE"/>
<stop offset="1" stop-color="#00F2FE"/>
</linearGradient>
</defs>
</svg>
