<svg width="118" height="118" viewBox="0 0 118 118" fill="none" xmlns="http://www.w3.org/2000/svg">
<path d="M84.5072 0C71.3513 0.0183423 59.4273 7.74501 54.0356 19.7453C46.8606 19.9921 39.8207 21.7661 33.3856 24.9491C21.1805 24.7289 7.53576 30.9966 5.77166 49.3142C3.7696 70.21 14.6689 95.226 1.563 97.82C0.818229 97.985 0.232822 98.5604 0.0550065 99.3022C-0.122809 100.044 0.138124 100.822 0.727162 101.307C2.94163 103.134 6.23383 112.487 33.6708 113.876C34.4393 116.325 36.7067 117.994 39.2738 118H56.9738C59.5402 117.99 61.8047 116.319 62.571 113.87C65.0529 113.746 67.4326 113.557 69.7336 113.256C87.3333 110.995 91.6973 105.783 94.3071 102.654C94.7254 102.097 95.2028 101.586 95.7309 101.132C96.2442 100.619 96.4329 99.8641 96.2218 99.1695C96.0107 98.4749 95.4342 97.9531 94.722 97.8122C85.2034 95.9242 88.3009 82.6177 90.0492 66.3593C107.17 63.4631 119.219 47.9363 117.774 30.6328C116.329 13.3292 101.871 0.0161346 84.5072 0V0ZM5.44716 100.678C18.5117 94.5278 7.77963 69.4941 9.67943 49.6898C11.593 29.8265 28.4513 28.7684 33.602 28.8864C33.8874 28.9092 34.1746 28.8799 34.4496 28.7999C40.0512 25.8776 46.2023 24.1599 52.5075 23.7573C50.3537 30.8128 50.623 38.3861 53.2726 45.2707C51.7799 45.2432 50.1062 45.2333 48.1238 45.2333C38.7055 45.2333 35.1714 39.8525 33.9048 36.6429C33.678 36.0695 33.1953 35.6357 32.601 35.4711C32.0067 35.3065 31.3696 35.4301 30.8801 35.8051C25.2613 40.1062 22.5001 47.4085 22.4234 58.0599C21.27 57.6955 20.0211 57.7841 18.9306 58.3077C16.7358 59.415 15.6738 62.188 15.6738 66.788C15.6738 76.7 21.5148 79.5969 24.6694 80.4367C26.2275 86.2845 29.2193 91.6515 33.3738 96.052V109.921C31.1889 109.799 29.0472 109.626 27.0569 109.362C12.0237 107.431 7.77176 103.384 5.44716 100.678ZM49.6775 68.2571C50.4455 69.0249 51.6904 69.0249 52.4584 68.2571L62.3271 58.3864C64.5893 60.4002 67.1147 62.0972 69.8339 63.4309C69.6195 71.1501 68.8505 78.1809 65.6291 85.0111C61.5129 93.7982 55.6188 98.2547 48.1258 98.2547C40.5738 98.2547 34.662 93.7982 30.5556 85.0131C27.0392 77.4867 26.3332 69.2994 26.3332 58.5477C26.3332 50.2503 28.0186 44.3365 31.4721 40.5723C33.6708 44.25 38.4223 49.1667 48.1238 49.1667C50.9637 49.1667 53.1782 49.1844 55.0662 49.2552C56.31 51.5389 57.8154 53.67 59.5521 55.6055L49.6834 65.4762C48.9156 66.2442 48.9156 67.4891 49.6834 68.2571H49.6775ZM76.6208 65.8971C76.7644 69.7872 75.9935 73.809 72.6364 75.8052C73.2557 72.2538 73.6205 68.6627 73.7279 65.0593C74.6732 65.3753 75.6368 65.65 76.6189 65.8833L76.6208 65.8971ZM22.4392 62.3315C22.4684 66.8485 22.8631 71.3557 23.6192 75.8091C21.5561 74.574 19.6072 72.0351 19.6072 66.788C19.6072 62.42 20.6534 61.8418 20.6987 61.8202C20.9091 61.7101 21.5266 61.8005 22.4372 62.3217L22.4392 62.3315ZM56.9738 114.067H39.2738C38.1877 114.067 37.3072 113.186 37.3072 112.1V99.1692C43.9537 103.216 52.3057 103.204 58.9405 99.1377V112.1C58.9405 113.186 58.06 114.067 56.9738 114.067ZM90.8359 100.678C88.5152 103.384 84.2653 107.431 69.2262 109.362C67.1828 109.632 65.0647 109.801 62.8738 109.921V95.9891C67.0057 91.6149 69.9718 86.2723 71.4996 80.4524C76.8686 79.0561 80.5994 74.5957 80.5699 66.6051C82.3822 66.8656 84.2178 66.9243 86.0431 66.7801C84.4816 80.7769 81.215 96.1503 90.8359 100.678ZM84.5072 62.9333C68.2148 62.9333 55.0072 49.7257 55.0072 33.4333C55.0072 17.1409 68.2148 3.93333 84.5072 3.93333C100.8 3.93333 114.007 17.1409 114.007 33.4333C113.989 49.7181 100.792 62.9149 84.5072 62.9333Z" fill="url(#paint0_linear)"/>
<path d="M84.5069 7.86658C70.3868 7.86658 58.9402 19.3132 58.9402 33.4332C58.9402 47.5533 70.3868 58.9999 84.5069 58.9999C98.6269 58.9999 110.074 47.5533 110.074 33.4332C110.057 19.3199 98.6202 7.88283 84.5069 7.86658ZM84.5069 55.0666C72.5591 55.0666 62.8735 45.381 62.8735 33.4332C62.8735 21.4855 72.5591 11.7999 84.5069 11.7999C96.4546 11.7999 106.14 21.4855 106.14 33.4332C106.126 45.3752 96.4488 55.0525 84.5069 55.0666Z" fill="url(#paint1_linear)"/>
<path d="M97.9195 38.7002L94.3402 36.3146V34.8514C94.3426 33.1567 93.2593 31.6511 91.6517 31.1147L87.8167 29.8364C87.5748 29.2464 88.5621 31.2426 84.8097 23.7397L88.1098 18.7896C88.4997 18.205 88.5482 17.4568 88.2369 16.8268C87.9256 16.1968 87.3019 15.7807 86.6006 15.7353C85.8994 15.6899 85.2272 16.022 84.8372 16.6066L81.7378 21.2598L77.2616 19.7671C76.2298 19.4238 75.1151 19.9821 74.7718 21.0139C74.4286 22.0458 74.9868 23.1605 76.0187 23.5037L81.1458 25.2128L84.204 31.3291L81.1222 35.9527L76.4258 39.0837C75.3325 39.8122 74.6751 41.0384 74.6735 42.3523V45.2334C74.6735 46.3196 75.554 47.2001 76.6402 47.2001C77.7263 47.2001 78.6068 46.3196 78.6068 45.2334V42.3523C83.5943 39.0286 83.8126 39.0089 84.3947 38.1298L87.2759 33.8032L90.4068 34.8514V36.3146C90.4071 37.6298 91.0646 38.8578 92.1591 39.5871L95.7385 41.9727L94.5467 44.3543C94.0612 45.3264 94.4556 46.5081 95.4277 46.9936C96.3999 47.4791 97.5815 47.0846 98.067 46.1125L99.247 43.7329C100.136 41.9605 99.5674 39.8033 97.9195 38.7002Z" fill="url(#paint2_linear)"/>
<defs>
<linearGradient id="paint0_linear" x1="58.9456" y1="0" x2="58.9456" y2="118" gradientUnits="userSpaceOnUse">
<stop stop-color="#4FACFE"/>
<stop offset="1" stop-color="#00F2FE"/>
</linearGradient>
<linearGradient id="paint1_linear" x1="84.5069" y1="7.86658" x2="84.5069" y2="58.9999" gradientUnits="userSpaceOnUse">
<stop stop-color="#4FACFE"/>
<stop offset="1" stop-color="#00F2FE"/>
</linearGradient>
<linearGradient id="paint2_linear" x1="87.1679" y1="15.7312" x2="87.1679" y2="47.2013" gradientUnits="userSpaceOnUse">
<stop stop-color="#4FACFE"/>
<stop offset="1" stop-color="#00F2FE"/>
</linearGradient>
</defs>
</svg>
